<?xml version="1.0" encoding="utf-8" ?>
<svg baseProfile="full" height="400" version="1.1" width="800" xmlns="http://www.w3.org/2000/svg" xmlns:ev="http://www.w3.org/2001/xml-events" xmlns:xlink="http://www.w3.org/1999/xlink"><defs /><circle cx="570.0" cy="165.35898384862247" fill="#8f8" r="15" stroke="black" /><text fill="black" font-size="8" x="562.0" y="169.35898384862247">A1</text><circle cx="580.0" cy="148.03847577293368" fill="#ff8" r="15" stroke="black" /><text fill="black" font-size="8" x="572.0" y="152.03847577293368">B1</text><circle cx="590.0" cy="130.71796769724492" fill="#88f" r="15" stroke="black" /><text fill="black" font-size="8" x="582.0" y="134.71796769724492">C1</text><circle cx="600.0" cy="113.39745962155614" fill="#f88" r="15" stroke="black" /><text fill="black" font-size="8" x="592.0" y="117.39745962155614">D1</text><circle cx="580.6417777247591" cy="174.28849561253844" fill="#ff8" r="15" stroke="black" /><text fill="black" font-size="8" x="572.6417777247591" y="178.28849561253844">A2</text><circle cx="595.9626665871386" cy="161.43274341880766" fill="#88f" r="15" stroke="black" /><text fill="black" font-size="8" x="587.9626665871386" y="165.43274341880766">B2</text><circle cx="611.2835554495182" cy="148.57699122507685" fill="#f88" r="15" stroke="black" /><text fill="black" font-size="8" x="603.2835554495182" y="152.57699122507685">C2</text><circle cx="626.6044443118979" cy="135.72123903134607" fill="#8f8" r="15" stroke="black" /><text fill="black" font-size="8" x="618.6044443118979" y="139.72123903134607">D2</text><circle cx="587.5877048314363" cy="186.31919426697326" fill="#88f" r="15" stroke="black" /><text fill="black" font-size="8" x="579.5877048314363" y="190.31919426697326">A3</text><circle cx="606.3815572471545" cy="179.47879140045987" fill="#f88" r="15" stroke="black" /><text fill="black" font-size="8" x="598.3815572471545" y="183.47879140045987">B3</text><circle cx="625.1754096628727" cy="172.6383885339465" fill="#8f8" r="15" stroke="black" /><text fill="black" font-size="8" x="617.1754096628727" y="176.6383885339465">C3</text><circle cx="643.9692620785909" cy="165.79798566743312" fill="#ff8" r="15" stroke="black" /><text fill="black" font-size="8" x="635.9692620785909" y="169.79798566743312">D3</text><circle cx="590.0" cy="200.0" fill="#f88" r="15" stroke="black" /><text fill="black" font-size="8" x="582.0" y="204.0">A4</text><circle cx="610.0" cy="200.0" fill="#8f8" r="15" stroke="black" /><text fill="black" font-size="8" x="602.0" y="204.0">B4</text><circle cx="630.0" cy="200.0" fill="#ff8" r="15" stroke="black" /><text fill="black" font-size="8" x="622.0" y="204.0">C4</text><circle cx="650.0" cy="200.0" fill="#88f" r="15" stroke="black" /><text fill="black" font-size="8" x="642.0" y="204.0">D4</text><circle cx="587.5877048314363" cy="213.68080573302674" fill="#8f8" r="15" stroke="black" /><text fill="black" font-size="8" x="579.5877048314363" y="217.68080573302674">A5</text><circle cx="606.3815572471545" cy="220.52120859954013" fill="#ff8" r="15" stroke="black" /><text fill="black" font-size="8" x="598.3815572471545" y="224.52120859954013">B5</text><circle cx="625.1754096628727" cy="227.3616114660535" fill="#88f" r="15" stroke="black" /><text fill="black" font-size="8" x="617.1754096628727" y="231.3616114660535">C5</text><circle cx="643.9692620785909" cy="234.20201433256688" fill="#f88" r="15" stroke="black" /><text fill="black" font-size="8" x="635.9692620785909" y="238.20201433256688">D5</text><circle cx="580.6417777247591" cy="225.71150438746156" fill="#ff8" r="15" stroke="black" /><text fill="black" font-size="8" x="572.6417777247591" y="229.71150438746156">A6</text><circle cx="595.9626665871386" cy="238.56725658119234" fill="#88f" r="15" stroke="black" /><text fill="black" font-size="8" x="587.9626665871386" y="242.56725658119234">B6</text><circle cx="611.2835554495182" cy="251.42300877492315" fill="#f88" r="15" stroke="black" /><text fill="black" font-size="8" x="603.2835554495182" y="255.42300877492315">C6</text><circle cx="626.6044443118979" cy="264.27876096865396" fill="#8f8" r="15" stroke="black" /><text fill="black" font-size="8" x="618.6044443118979" y="268.27876096865396">D6</text><circle cx="570.0" cy="234.64101615137753" fill="#88f" r="15" stroke="black" /><text fill="black" font-size="8" x="562.0" y="238.64101615137753">A7</text><circle cx="580.0" cy="251.96152422706632" fill="#f88" r="15" stroke="black" /><text fill="black" font-size="8" x="572.0" y="255.96152422706632">B7</text><circle cx="590.0" cy="269.28203230275506" fill="#8f8" r="15" stroke="black" /><text fill="black" font-size="8" x="582.0" y="273.28203230275506">C7</text><circle cx="600.0" cy="286.60254037844385" fill="#ff8" r="15" stroke="black" /><text fill="black" font-size="8" x="592.0" y="290.60254037844385">D7</text><circle cx="556.9459271066772" cy="239.39231012048833" fill="#f88" r="15" stroke="black" /><text fill="black" font-size="8" x="548.9459271066772" y="243.39231012048833">A8</text><circle cx="560.4188906600158" cy="259.0884651807325" fill="#8f8" r="15" stroke="black" /><text fill="black" font-size="8" x="552.4188906600158" y="263.0884651807325">B8</text><circle cx="563.8918542133545" cy="278.78462024097666" fill="#ff8" r="15" stroke="black" /><text fill="black" font-size="8" x="555.8918542133545" y="282.78462024097666">C8</text><circle cx="567.364817766693" cy="298.4807753012208" fill="#88f" r="15" stroke="black" /><text fill="black" font-size="8" x="559.364817766693" y="302.4807753012208">D8</text><circle cx="256.94592710667723" cy="160.60768987951167" fill="#8f8" r="15" stroke="black" /><text fill="black" font-size="8" x="248.94592710667723" y="164.60768987951167">A9</text><circle cx="260.41889066001585" cy="140.9115348192675" fill="#ff8" r="15" stroke="black" /><text fill="black" font-size="8" x="252.41889066001585" y="144.9115348192675">B9</text><circle cx="263.8918542133544" cy="121.21537975902336" fill="#88f" r="15" stroke="black" /><text fill="black" font-size="8" x="255.8918542133544" y="125.21537975902336">C9</text><circle cx="267.364817766693" cy="101.5192246987792" fill="#f88" r="15" stroke="black" /><text fill="black" font-size="8" x="259.364817766693" y="105.5192246987792">D9</text><circle cx="270.0" cy="165.35898384862247" fill="#ff8" r="15" stroke="black" /><text fill="black" font-size="8" x="262.0" y="169.35898384862247">A10</text><circle cx="280.0" cy="148.03847577293368" fill="#88f" r="15" stroke="black" /><text fill="black" font-size="8" x="272.0" y="152.03847577293368">B10</text><circle cx="290.0" cy="130.71796769724492" fill="#f88" r="15" stroke="black" /><text fill="black" font-size="8" x="282.0" y="134.71796769724492">C10</text><circle cx="300.0" cy="113.39745962155614" fill="#8f8" r="15" stroke="black" /><text fill="black" font-size="8" x="292.0" y="117.39745962155614">D10</text><circle cx="280.6417777247591" cy="174.28849561253844" fill="#88f" r="15" stroke="black" /><text fill="black" font-size="8" x="272.6417777247591" y="178.28849561253844">A11</text><circle cx="295.9626665871387" cy="161.43274341880766" fill="#f88" r="15" stroke="black" /><text fill="black" font-size="8" x="287.9626665871387" y="165.43274341880766">B11</text><circle cx="311.28355544951825" cy="148.57699122507685" fill="#8f8" r="15" stroke="black" /><text fill="black" font-size="8" x="303.28355544951825" y="152.57699122507685">C11</text><circle cx="326.6044443118978" cy="135.72123903134607" fill="#ff8" r="15" stroke="black" /><text fill="black" font-size="8" x="318.6044443118978" y="139.72123903134607">D11</text><circle cx="287.5877048314363" cy="186.31919426697326" fill="#f88" r="15" stroke="black" /><text fill="black" font-size="8" x="279.5877048314363" y="190.31919426697326">A12</text><circle cx="306.3815572471545" cy="179.47879140045987" fill="#8f8" r="15" stroke="black" /><text fill="black" font-size="8" x="298.3815572471545" y="183.47879140045987">B12</text><circle cx="325.17540966287265" cy="172.6383885339465" fill="#ff8" r="15" stroke="black" /><text fill="black" font-size="8" x="317.17540966287265" y="176.6383885339465">C12</text><circle cx="343.9692620785909" cy="165.79798566743312" fill="#88f" r="15" stroke="black" /><text fill="black" font-size="8" x="335.9692620785909" y="169.79798566743312">D12</text><circle cx="290.0" cy="200.0" fill="#8f8" r="15" stroke="black" /><text fill="black" font-size="8" x="282.0" y="204.0">A13</text><circle cx="310.0" cy="200.0" fill="#ff8" r="15" stroke="black" /><text fill="black" font-size="8" x="302.0" y="204.0">B13</text><circle cx="330.0" cy="200.0" fill="#88f" r="15" stroke="black" /><text fill="black" font-size="8" x="322.0" y="204.0">C13</text><circle cx="350.0" cy="200.0" fill="#f88" r="15" stroke="black" /><text fill="black" font-size="8" x="342.0" y="204.0">D13</text><circle cx="287.5877048314363" cy="213.68080573302674" fill="#ff8" r="15" stroke="black" /><text fill="black" font-size="8" x="279.5877048314363" y="217.68080573302674">A14</text><circle cx="306.3815572471545" cy="220.52120859954013" fill="#88f" r="15" stroke="black" /><text fill="black" font-size="8" x="298.3815572471545" y="224.52120859954013">B14</text><circle cx="325.17540966287265" cy="227.3616114660535" fill="#f88" r="15" stroke="black" /><text fill="black" font-size="8" x="317.17540966287265" y="231.3616114660535">C14</text><circle cx="343.9692620785909" cy="234.20201433256688" fill="#8f8" r="15" stroke="black" /><text fill="black" font-size="8" x="335.9692620785909" y="238.20201433256688">D14</text><circle cx="280.6417777247591" cy="225.71150438746156" fill="#88f" r="15" stroke="black" /><text fill="black" font-size="8" x="272.6417777247591" y="229.71150438746156">A15</text><circle cx="295.9626665871387" cy="238.56725658119234" fill="#f88" r="15" stroke="black" /><text fill="black" font-size="8" x="287.9626665871387" y="242.56725658119234">B15</text><circle cx="311.28355544951825" cy="251.42300877492315" fill="#8f8" r="15" stroke="black" /><text fill="black" font-size="8" x="303.28355544951825" y="255.42300877492315">C15</text><circle cx="326.6044443118978" cy="264.27876096865396" fill="#ff8" r="15" stroke="black" /><text fill="black" font-size="8" x="318.6044443118978" y="268.27876096865396">D15</text><circle cx="270.0" cy="234.64101615137753" fill="#f88" r="15" stroke="black" /><text fill="black" font-size="8" x="262.0" y="238.64101615137753">A16</text><circle cx="280.0" cy="251.96152422706632" fill="#8f8" r="15" stroke="black" /><text fill="black" font-size="8" x="272.0" y="255.96152422706632">B16</text><circle cx="290.0" cy="269.28203230275506" fill="#ff8" r="15" stroke="black" /><text fill="black" font-size="8" x="282.0" y="273.28203230275506">C16</text><circle cx="300.0" cy="286.60254037844385" fill="#88f" r="15" stroke="black" /><text fill="black" font-size="8" x="292.0" y="290.60254037844385">D16</text><circle cx="256.94592710667723" cy="239.39231012048833" fill="#8f8" r="15" stroke="black" /><text fill="black" font-size="8" x="248.94592710667723" y="243.39231012048833">A17</text><circle cx="260.41889066001585" cy="259.0884651807325" fill="#ff8" r="15" stroke="black" /><text fill="black" font-size="8" x="252.41889066001585" y="263.0884651807325">B17</text><circle cx="263.8918542133544" cy="278.78462024097666" fill="#88f" r="15" stroke="black" /><text fill="black" font-size="8" x="255.8918542133544" y="282.78462024097666">C17</text><circle cx="267.364817766693" cy="298.4807753012208" fill="#f88" r="15" stroke="black" /><text fill="black" font-size="8" x="259.364817766693" y="302.4807753012208">D17</text><circle cx="556.9459271066772" cy="160.60768987951167" fill="#ff8" r="15" stroke="black" /><text fill="black" font-size="8" x="548.9459271066772" y="164.60768987951167">A18</text><circle cx="560.4188906600158" cy="140.9115348192675" fill="#88f" r="15" stroke="black" /><text fill="black" font-size="8" x="552.4188906600158" y="144.9115348192675">B18</text><circle cx="563.8918542133543" cy="121.21537975902335" fill="#f88" r="15" stroke="black" /><text fill="black" font-size="8" x="555.8918542133543" y="125.21537975902335">C18</text><circle cx="567.364817766693" cy="101.51922469877918" fill="#8f8" r="15" stroke="black" /><text fill="black" font-size="8" x="559.364817766693" y="105.51922469877918">D18</text><text fill="white" font-size="16" font-weight="bold" stroke="black" stroke-width="0.5" x="285.0" y="205.0">B</text><text fill="white" font-size="16" font-weight="bold" stroke="black" stroke-width="0.5" x="301.3815572471545" y="225.52120859954013">P</text><text fill="white" font-size="16" font-weight="bold" stroke="black" stroke-width="0.5" x="290.9626665871387" y="243.56725658119234">P</text><text fill="white" font-size="16" font-weight="bold" stroke="black" stroke-width="0.5" x="275.0" y="256.9615242270663">P</text><text fill="white" font-size="16" font-weight="bold" stroke="black" stroke-width="0.5" x="255.41889066001585" y="264.0884651807325">P</text><text fill="white" font-size="16" font-weight="bold" stroke="black" stroke-width="0.5" x="301.3815572471545" y="184.47879140045987">P</text><text fill="white" font-size="16" font-weight="bold" stroke="black" stroke-width="0.5" x="290.9626665871387" y="166.43274341880766">P</text><text fill="white" font-size="16" font-weight="bold" stroke="black" stroke-width="0.5" x="275.0" y="153.03847577293368">P</text><text fill="white" font-size="16" font-weight="bold" stroke="black" stroke-width="0.5" x="255.41889066001585" y="145.9115348192675">P</text><text fill="black" font-size="16" font-weight="bold" stroke="white" stroke-width="0.5" x="645.0" y="205.0">K</text><text fill="black" font-size="16" font-weight="bold" stroke="white" stroke-width="0.5" x="625.0" y="205.0">Q</text><text fill="black" font-size="16" font-weight="bold" stroke="white" stroke-width="0.5" x="605.0" y="205.0">B</text><text fill="black" font-size="16" font-weight="bold" stroke="white" stroke-width="0.5" x="585.0" y="205.0">B</text><text fill="black" font-size="16" font-weight="bold" stroke="white" stroke-width="0.5" x="606.2835554495182" y="153.57699122507685">N</text><text fill="black" font-size="16" font-weight="bold" stroke="white" stroke-width="0.5" x="606.2835554495182" y="256.4230087749231">N</text><text fill="black" font-size="16" font-weight="bold" stroke="white" stroke-width="0.5" x="601.3815572471545" y="225.52120859954013">P</text><text fill="black" font-size="16" font-weight="bold" stroke="white" stroke-width="0.5" x="590.9626665871386" y="243.56725658119234">P</text><text fill="black" font-size="16" font-weight="bold" stroke="white" stroke-width="0.5" x="575.0" y="256.9615242270663">P</text><text fill="black" font-size="16" font-weight="bold" stroke="white" stroke-width="0.5" x="555.4188906600158" y="264.0884651807325">P</text><text fill="black" font-size="16" font-weight="bold" stroke="white" stroke-width="0.5" x="601.3815572471545" y="184.47879140045987">P</text><text fill="black" font-size="16" font-weight="bold" stroke="white" stroke-width="0.5" x="590.9626665871386" y="166.43274341880766">P</text><text fill="black" font-size="16" font-weight="bold" stroke="white" stroke-width="0.5" x="575.0" y="153.03847577293368">P</text><text fill="black" font-size="16" font-weight="bold" stroke="white" stroke-width="0.5" x="555.4188906600158" y="145.9115348192675">P</text><text fill="white" font-size="16" font-weight="bold" stroke="black" stroke-width="0.5" x="345.0" y="205.0">K</text><text fill="white" font-size="16" font-weight="bold" stroke="black" stroke-width="0.5" x="325.0" y="205.0">Q</text><text fill="white" font-size="16" font-weight="bold" stroke="black" stroke-width="0.5" x="305.0" y="205.0">B</text><text fill="black" font-size="16" font-weight="bold" stroke="white" stroke-width="0.5" x="621.6044443118979" y="140.72123903134607">R</text><text fill="white" font-size="16" font-weight="bold" stroke="black" stroke-width="0.5" x="321.6044443118978" y="269.27876096865396">R</text><text fill="white" font-size="16" font-weight="bold" stroke="black" stroke-width="0.5" x="306.28355544951825" y="256.4230087749231">N</text><text fill="white" font-size="16" font-weight="bold" stroke="black" stroke-width="0.5" x="321.6044443118978" y="140.72123903134607">R</text><text fill="black" font-size="16" font-weight="bold" stroke="white" stroke-width="0.5" x="621.6044443118979" y="269.27876096865396">R</text><text fill="white" font-size="16" font-weight="bold" stroke="black" stroke-width="0.5" x="306.28355544951825" y="153.57699122507685">N</text></svg>