<?xml version="1.0" encoding="utf-8" ?>
<svg baseProfile="full" height="600" version="1.1" width="1000" xmlns="http://www.w3.org/2000/svg" xmlns:ev="http://www.w3.org/2001/xml-events" xmlns:xlink="http://www.w3.org/1999/xlink"><defs /><rect fill="#1a1a1a" height="100%" width="100%" x="0" y="0" /><path d="M 426.60 364.28 A 100 100 0 0 0 450.00 300.00 L 410.00 300.00 A 60 60 0 0 1 395.96 338.57 Z" fill="#32ff7e" opacity="0.75" stroke="#222222" stroke-width="2" /><text fill="#000000" font-family="monospace" font-size="10" font-weight="bold" opacity="0.4" text-anchor="middle" x="425.17540966287265" y="343.3616114660535">A9</text><path d="M 457.25 389.99 A 140 140 0 0 0 490.00 300.00 L 450.00 300.00 A 100 100 0 0 1 426.60 364.28 Z" fill="#fffa65" opacity="0.75" stroke="#222222" stroke-width="2" /><text fill="#000000" font-family="monospace" font-size="10" font-weight="bold" opacity="0.4" text-anchor="middle" x="462.763114494309" y="357.0424171990802">B9</text><path d="M 487.89 415.70 A 180 180 0 0 0 530.00 300.00 L 490.00 300.00 A 140 140 0 0 1 457.25 389.99 Z" fill="#18dcff" opacity="0.75" stroke="#222222" stroke-width="2" /><text fill="#000000" font-family="monospace" font-size="10" font-weight="bold" opacity="0.4" text-anchor="middle" x="500.35081932574536" y="370.723222932107">C9</text><path d="M 518.53 441.41 A 220 220 0 0 0 570.00 300.00 L 530.00 300.00 A 180 180 0 0 1 487.89 415.70 Z" fill="#ff5252" opacity="0.75" stroke="#222222" stroke-width="2" /><text fill="#000000" font-family="monospace" font-size="10" font-weight="bold" opacity="0.4" text-anchor="middle" x="537.9385241571817" y="384.40402866513375">D9</text><path d="M 367.36 398.48 A 100 100 0 0 0 426.60 364.28 L 395.96 338.57 A 60 60 0 0 1 360.42 359.09 Z" fill="#fffa65" opacity="0.75" stroke="#222222" stroke-width="2" /><text fill="#000000" font-family="monospace" font-size="10" font-weight="bold" opacity="0.4" text-anchor="middle" x="390.0" y="385.28203230275506">A10</text><path d="M 374.31 437.87 A 140 140 0 0 0 457.25 389.99 L 426.60 364.28 A 100 100 0 0 1 367.36 398.48 Z" fill="#18dcff" opacity="0.75" stroke="#222222" stroke-width="2" /><text fill="#000000" font-family="monospace" font-size="10" font-weight="bold" opacity="0.4" text-anchor="middle" x="410.0" y="419.92304845413264">B10</text><path d="M 381.26 477.27 A 180 180 0 0 0 487.89 415.70 L 457.25 389.99 A 140 140 0 0 1 374.31 437.87 Z" fill="#ff5252" opacity="0.75" stroke="#222222" stroke-width="2" /><text fill="#000000" font-family="monospace" font-size="10" font-weight="bold" opacity="0.4" text-anchor="middle" x="430.0" y="454.56406460551017">C10</text><path d="M 388.20 516.66 A 220 220 0 0 0 518.53 441.41 L 487.89 415.70 A 180 180 0 0 1 381.26 477.27 Z" fill="#32ff7e" opacity="0.75" stroke="#222222" stroke-width="2" /><text fill="#000000" font-family="monospace" font-size="10" font-weight="bold" opacity="0.4" text-anchor="middle" x="450.0" y="489.2050807568877">D10</text><path d="M 300.00 386.60 A 100 100 0 0 0 367.36 398.48 L 360.42 359.09 A 60 60 0 0 1 320.00 351.96 Z" fill="#18dcff" opacity="0.75" stroke="#222222" stroke-width="2" /><text fill="#000000" font-family="monospace" font-size="10" font-weight="bold" opacity="0.4" text-anchor="middle" x="336.1081457866456" y="394.78462024097666">A11</text><path d="M 280.00 421.24 A 140 140 0 0 0 374.31 437.87 L 367.36 398.48 A 100 100 0 0 1 300.00 386.60 Z" fill="#ff5252" opacity="0.75" stroke="#222222" stroke-width="2" /><text fill="#000000" font-family="monospace" font-size="10" font-weight="bold" opacity="0.4" text-anchor="middle" x="329.16221867996836" y="434.176930361465">B11</text><path d="M 260.00 455.88 A 180 180 0 0 0 381.26 477.27 L 374.31 437.87 A 140 140 0 0 1 280.00 421.24 Z" fill="#32ff7e" opacity="0.75" stroke="#222222" stroke-width="2" /><text fill="#000000" font-family="monospace" font-size="10" font-weight="bold" opacity="0.4" text-anchor="middle" x="322.21629157329113" y="473.5692404819533">C11</text><path d="M 240.00 490.53 A 220 220 0 0 0 388.20 516.66 L 381.26 477.27 A 180 180 0 0 1 260.00 455.88 Z" fill="#fffa65" opacity="0.75" stroke="#222222" stroke-width="2" /><text fill="#000000" font-family="monospace" font-size="10" font-weight="bold" opacity="0.4" text-anchor="middle" x="315.27036446661396" y="512.9615506024415">D11</text><path d="M 256.03 334.20 A 100 100 0 0 0 300.00 386.60 L 320.00 351.96 A 60 60 0 0 1 293.62 320.52 Z" fill="#ff5252" opacity="0.75" stroke="#222222" stroke-width="2" /><text fill="#000000" font-family="monospace" font-size="10" font-weight="bold" opacity="0.4" text-anchor="middle" x="288.71644455048175" y="367.4230087749231">A12</text><path d="M 218.44 347.88 A 140 140 0 0 0 280.00 421.24 L 300.00 386.60 A 100 100 0 0 1 256.03 334.20 Z" fill="#32ff7e" opacity="0.75" stroke="#222222" stroke-width="2" /><text fill="#000000" font-family="monospace" font-size="10" font-weight="bold" opacity="0.4" text-anchor="middle" x="258.0746668257226" y="393.1345131623847">B12</text><path d="M 180.86 361.56 A 180 180 0 0 0 260.00 455.88 L 280.00 421.24 A 140 140 0 0 1 218.44 347.88 Z" fill="#fffa65" opacity="0.75" stroke="#222222" stroke-width="2" /><text fill="#000000" font-family="monospace" font-size="10" font-weight="bold" opacity="0.4" text-anchor="middle" x="227.4328891009635" y="418.8460175498463">C12</text><path d="M 143.27 375.24 A 220 220 0 0 0 240.00 490.53 L 260.00 455.88 A 180 180 0 0 1 180.86 361.56 Z" fill="#18dcff" opacity="0.75" stroke="#222222" stroke-width="2" /><text fill="#000000" font-family="monospace" font-size="10" font-weight="bold" opacity="0.4" text-anchor="middle" x="196.79111137620438" y="444.55752193730785">D12</text><path d="M 256.03 265.80 A 100 100 0 0 0 256.03 334.20 L 293.62 320.52 A 60 60 0 0 1 293.62 279.48 Z" fill="#32ff7e" opacity="0.75" stroke="#222222" stroke-width="2" /><text fill="#000000" font-family="monospace" font-size="10" font-weight="bold" opacity="0.4" text-anchor="middle" x="270.0" y="316.0">A13</text><path d="M 218.44 252.12 A 140 140 0 0 0 218.44 347.88 L 256.03 334.20 A 100 100 0 0 1 256.03 265.80 Z" fill="#fffa65" opacity="0.75" stroke="#222222" stroke-width="2" /><text fill="#000000" font-family="monospace" font-size="10" font-weight="bold" opacity="0.4" text-anchor="middle" x="230.0" y="316.0">B13</text><path d="M 180.86 238.44 A 180 180 0 0 0 180.86 361.56 L 218.44 347.88 A 140 140 0 0 1 218.44 252.12 Z" fill="#18dcff" opacity="0.75" stroke="#222222" stroke-width="2" /><text fill="#000000" font-family="monospace" font-size="10" font-weight="bold" opacity="0.4" text-anchor="middle" x="190.0" y="316.0">C13</text><path d="M 143.27 224.76 A 220 220 0 0 0 143.27 375.24 L 180.86 361.56 A 180 180 0 0 1 180.86 238.44 Z" fill="#ff5252" opacity="0.75" stroke="#222222" stroke-width="2" /><text fill="#000000" font-family="monospace" font-size="10" font-weight="bold" opacity="0.4" text-anchor="middle" x="150.0" y="316.0">D13</text><path d="M 300.00 213.40 A 100 100 0 0 0 256.03 265.80 L 293.62 279.48 A 60 60 0 0 1 320.00 248.04 Z" fill="#fffa65" opacity="0.75" stroke="#222222" stroke-width="2" /><text fill="#000000" font-family="monospace" font-size="10" font-weight="bold" opacity="0.4" text-anchor="middle" x="288.71644455048175" y="264.5769912250768">A14</text><path d="M 280.00 178.76 A 140 140 0 0 0 218.44 252.12 L 256.03 265.80 A 100 100 0 0 1 300.00 213.40 Z" fill="#18dcff" opacity="0.75" stroke="#222222" stroke-width="2" /><text fill="#000000" font-family="monospace" font-size="10" font-weight="bold" opacity="0.4" text-anchor="middle" x="258.07466682572266" y="238.86548683761526">B14</text><path d="M 260.00 144.12 A 180 180 0 0 0 180.86 238.44 L 218.44 252.12 A 140 140 0 0 1 280.00 178.76 Z" fill="#ff5252" opacity="0.75" stroke="#222222" stroke-width="2" /><text fill="#000000" font-family="monospace" font-size="10" font-weight="bold" opacity="0.4" text-anchor="middle" x="227.43288910096354" y="213.15398245015368">C14</text><path d="M 240.00 109.47 A 220 220 0 0 0 143.27 224.76 L 180.86 238.44 A 180 180 0 0 1 260.00 144.12 Z" fill="#32ff7e" opacity="0.75" stroke="#222222" stroke-width="2" /><text fill="#000000" font-family="monospace" font-size="10" font-weight="bold" opacity="0.4" text-anchor="middle" x="196.7911113762044" y="187.44247806269212">D14</text><path d="M 367.36 201.52 A 100 100 0 0 0 300.00 213.40 L 320.00 248.04 A 60 60 0 0 1 360.42 240.91 Z" fill="#18dcff" opacity="0.75" stroke="#222222" stroke-width="2" /><text fill="#000000" font-family="monospace" font-size="10" font-weight="bold" opacity="0.4" text-anchor="middle" x="336.1081457866456" y="237.21537975902336">A15</text><path d="M 374.31 162.13 A 140 140 0 0 0 280.00 178.76 L 300.00 213.40 A 100 100 0 0 1 367.36 201.52 Z" fill="#ff5252" opacity="0.75" stroke="#222222" stroke-width="2" /><text fill="#000000" font-family="monospace" font-size="10" font-weight="bold" opacity="0.4" text-anchor="middle" x="329.16221867996836" y="197.82306963853503">B15</text><path d="M 381.26 122.73 A 180 180 0 0 0 260.00 144.12 L 280.00 178.76 A 140 140 0 0 1 374.31 162.13 Z" fill="#32ff7e" opacity="0.75" stroke="#222222" stroke-width="2" /><text fill="#000000" font-family="monospace" font-size="10" font-weight="bold" opacity="0.4" text-anchor="middle" x="322.21629157329113" y="158.43075951804673">C15</text><path d="M 388.20 83.34 A 220 220 0 0 0 240.00 109.47 L 260.00 144.12 A 180 180 0 0 1 381.26 122.73 Z" fill="#fffa65" opacity="0.75" stroke="#222222" stroke-width="2" /><text fill="#000000" font-family="monospace" font-size="10" font-weight="bold" opacity="0.4" text-anchor="middle" x="315.27036446661396" y="119.0384493975584">D15</text><path d="M 426.60 235.72 A 100 100 0 0 0 367.36 201.52 L 360.42 240.91 A 60 60 0 0 1 395.96 261.43 Z" fill="#ff5252" opacity="0.75" stroke="#222222" stroke-width="2" /><text fill="#000000" font-family="monospace" font-size="10" font-weight="bold" opacity="0.4" text-anchor="middle" x="390.0" y="246.71796769724492">A16</text><path d="M 457.25 210.01 A 140 140 0 0 0 374.31 162.13 L 367.36 201.52 A 100 100 0 0 1 426.60 235.72 Z" fill="#32ff7e" opacity="0.75" stroke="#222222" stroke-width="2" /><text fill="#000000" font-family="monospace" font-size="10" font-weight="bold" opacity="0.4" text-anchor="middle" x="410.0" y="212.07695154586736">B16</text><path d="M 487.89 184.30 A 180 180 0 0 0 381.26 122.73 L 374.31 162.13 A 140 140 0 0 1 457.25 210.01 Z" fill="#fffa65" opacity="0.75" stroke="#222222" stroke-width="2" /><text fill="#000000" font-family="monospace" font-size="10" font-weight="bold" opacity="0.4" text-anchor="middle" x="430.0" y="177.43593539448983">C16</text><path d="M 518.53 158.59 A 220 220 0 0 0 388.20 83.34 L 381.26 122.73 A 180 180 0 0 1 487.89 184.30 Z" fill="#18dcff" opacity="0.75" stroke="#222222" stroke-width="2" /><text fill="#000000" font-family="monospace" font-size="10" font-weight="bold" opacity="0.4" text-anchor="middle" x="450.0" y="142.79491924311228">D16</text><path d="M 450.00 300.00 A 100 100 0 0 0 426.60 235.72 L 395.96 261.43 A 60 60 0 0 1 410.00 300.00 Z" fill="#32ff7e" opacity="0.75" stroke="#222222" stroke-width="2" /><text fill="#000000" font-family="monospace" font-size="10" font-weight="bold" opacity="0.4" text-anchor="middle" x="425.17540966287265" y="288.6383885339465">A17</text><path d="M 490.00 300.00 A 140 140 0 0 0 457.25 210.01 L 426.60 235.72 A 100 100 0 0 1 450.00 300.00 Z" fill="#fffa65" opacity="0.75" stroke="#222222" stroke-width="2" /><text fill="#000000" font-family="monospace" font-size="10" font-weight="bold" opacity="0.4" text-anchor="middle" x="462.763114494309" y="274.95758280091974">B17</text><path d="M 530.00 300.00 A 180 180 0 0 0 487.89 184.30 L 457.25 210.01 A 140 140 0 0 1 490.00 300.00 Z" fill="#18dcff" opacity="0.75" stroke="#222222" stroke-width="2" /><text fill="#000000" font-family="monospace" font-size="10" font-weight="bold" opacity="0.4" text-anchor="middle" x="500.35081932574536" y="261.276777067893">C17</text><path d="M 570.00 300.00 A 220 220 0 0 0 518.53 158.59 L 487.89 184.30 A 180 180 0 0 1 530.00 300.00 Z" fill="#ff5252" opacity="0.75" stroke="#222222" stroke-width="2" /><text fill="#000000" font-family="monospace" font-size="10" font-weight="bold" opacity="0.4" text-anchor="middle" x="537.9385241571817" y="247.59597133486625">D17</text><path d="M 550.00 300.00 A 100 100 0 0 0 573.40 364.28 L 604.04 338.57 A 60 60 0 0 1 590.00 300.00 Z" fill="#fffa65" opacity="0.75" stroke="#222222" stroke-width="2" /><text fill="#000000" font-family="monospace" font-size="10" font-weight="bold" opacity="0.4" text-anchor="middle" x="574.8245903371273" y="343.3616114660535">A18</text><path d="M 510.00 300.00 A 140 140 0 0 0 542.75 389.99 L 573.40 364.28 A 100 100 0 0 1 550.00 300.00 Z" fill="#18dcff" opacity="0.75" stroke="#222222" stroke-width="2" /><text fill="#000000" font-family="monospace" font-size="10" font-weight="bold" opacity="0.4" text-anchor="middle" x="537.236885505691" y="357.04241719908026">B18</text><path d="M 470.00 300.00 A 180 180 0 0 0 512.11 415.70 L 542.75 389.99 A 140 140 0 0 1 510.00 300.00 Z" fill="#ff5252" opacity="0.75" stroke="#222222" stroke-width="2" /><text fill="#000000" font-family="monospace" font-size="10" font-weight="bold" opacity="0.4" text-anchor="middle" x="499.64918067425464" y="370.723222932107">C18</text><path d="M 430.00 300.00 A 220 220 0 0 0 481.47 441.41 L 512.11 415.70 A 180 180 0 0 1 470.00 300.00 Z" fill="#32ff7e" opacity="0.75" stroke="#222222" stroke-width="2" /><text fill="#000000" font-family="monospace" font-size="10" font-weight="bold" opacity="0.4" text-anchor="middle" x="462.0614758428183" y="384.40402866513375">D18</text><path d="M 573.40 364.28 A 100 100 0 0 0 632.64 398.48 L 639.58 359.09 A 60 60 0 0 1 604.04 338.57 Z" fill="#32ff7e" opacity="0.75" stroke="#222222" stroke-width="2" /><text fill="#000000" font-family="monospace" font-size="10" font-weight="bold" opacity="0.4" text-anchor="middle" x="610.0" y="385.28203230275506">A1</text><path d="M 542.75 389.99 A 140 140 0 0 0 625.69 437.87 L 632.64 398.48 A 100 100 0 0 1 573.40 364.28 Z" fill="#fffa65" opacity="0.75" stroke="#222222" stroke-width="2" /><text fill="#000000" font-family="monospace" font-size="10" font-weight="bold" opacity="0.4" text-anchor="middle" x="590.0" y="419.92304845413264">B1</text><path d="M 512.11 415.70 A 180 180 0 0 0 618.74 477.27 L 625.69 437.87 A 140 140 0 0 1 542.75 389.99 Z" fill="#18dcff" opacity="0.75" stroke="#222222" stroke-width="2" /><text fill="#000000" font-family="monospace" font-size="10" font-weight="bold" opacity="0.4" text-anchor="middle" x="569.9999999999999" y="454.56406460551017">C1</text><path d="M 481.47 441.41 A 220 220 0 0 0 611.80 516.66 L 618.74 477.27 A 180 180 0 0 1 512.11 415.70 Z" fill="#ff5252" opacity="0.75" stroke="#222222" stroke-width="2" /><text fill="#000000" font-family="monospace" font-size="10" font-weight="bold" opacity="0.4" text-anchor="middle" x="549.9999999999999" y="489.2050807568877">D1</text><path d="M 632.64 398.48 A 100 100 0 0 0 700.00 386.60 L 680.00 351.96 A 60 60 0 0 1 639.58 359.09 Z" fill="#fffa65" opacity="0.75" stroke="#222222" stroke-width="2" /><text fill="#000000" font-family="monospace" font-size="10" font-weight="bold" opacity="0.4" text-anchor="middle" x="663.8918542133543" y="394.78462024097666">A2</text><path d="M 625.69 437.87 A 140 140 0 0 0 720.00 421.24 L 700.00 386.60 A 100 100 0 0 1 632.64 398.48 Z" fill="#18dcff" opacity="0.75" stroke="#222222" stroke-width="2" /><text fill="#000000" font-family="monospace" font-size="10" font-weight="bold" opacity="0.4" text-anchor="middle" x="670.8377813200316" y="434.176930361465">B2</text><path d="M 618.74 477.27 A 180 180 0 0 0 740.00 455.88 L 720.00 421.24 A 140 140 0 0 1 625.69 437.87 Z" fill="#ff5252" opacity="0.75" stroke="#222222" stroke-width="2" /><text fill="#000000" font-family="monospace" font-size="10" font-weight="bold" opacity="0.4" text-anchor="middle" x="677.7837084267088" y="473.56924048195333">C2</text><path d="M 611.80 516.66 A 220 220 0 0 0 760.00 490.53 L 740.00 455.88 A 180 180 0 0 1 618.74 477.27 Z" fill="#32ff7e" opacity="0.75" stroke="#222222" stroke-width="2" /><text fill="#000000" font-family="monospace" font-size="10" font-weight="bold" opacity="0.4" text-anchor="middle" x="684.729635533386" y="512.9615506024417">D2</text><path d="M 700.00 386.60 A 100 100 0 0 0 743.97 334.20 L 706.38 320.52 A 60 60 0 0 1 680.00 351.96 Z" fill="#18dcff" opacity="0.75" stroke="#222222" stroke-width="2" /><text fill="#000000" font-family="monospace" font-size="10" font-weight="bold" opacity="0.4" text-anchor="middle" x="711.2835554495182" y="367.4230087749232">A3</text><path d="M 720.00 421.24 A 140 140 0 0 0 781.56 347.88 L 743.97 334.20 A 100 100 0 0 1 700.00 386.60 Z" fill="#ff5252" opacity="0.75" stroke="#222222" stroke-width="2" /><text fill="#000000" font-family="monospace" font-size="10" font-weight="bold" opacity="0.4" text-anchor="middle" x="741.9253331742773" y="393.13451316238474">B3</text><path d="M 740.00 455.88 A 180 180 0 0 0 819.14 361.56 L 781.56 347.88 A 140 140 0 0 1 720.00 421.24 Z" fill="#32ff7e" opacity="0.75" stroke="#222222" stroke-width="2" /><text fill="#000000" font-family="monospace" font-size="10" font-weight="bold" opacity="0.4" text-anchor="middle" x="772.5671108990365" y="418.84601754984635">C3</text><path d="M 760.00 490.53 A 220 220 0 0 0 856.73 375.24 L 819.14 361.56 A 180 180 0 0 1 740.00 455.88 Z" fill="#fffa65" opacity="0.75" stroke="#222222" stroke-width="2" /><text fill="#000000" font-family="monospace" font-size="10" font-weight="bold" opacity="0.4" text-anchor="middle" x="803.2088886237956" y="444.5575219373079">D3</text><path d="M 743.97 334.20 A 100 100 0 0 0 743.97 265.80 L 706.38 279.48 A 60 60 0 0 1 706.38 320.52 Z" fill="#ff5252" opacity="0.75" stroke="#222222" stroke-width="2" /><text fill="#000000" font-family="monospace" font-size="10" font-weight="bold" opacity="0.4" text-anchor="middle" x="730.0" y="316.0">A4</text><path d="M 781.56 347.88 A 140 140 0 0 0 781.56 252.12 L 743.97 265.80 A 100 100 0 0 1 743.97 334.20 Z" fill="#32ff7e" opacity="0.75" stroke="#222222" stroke-width="2" /><text fill="#000000" font-family="monospace" font-size="10" font-weight="bold" opacity="0.4" text-anchor="middle" x="770.0" y="316.0">B4</text><path d="M 819.14 361.56 A 180 180 0 0 0 819.14 238.44 L 781.56 252.12 A 140 140 0 0 1 781.56 347.88 Z" fill="#fffa65" opacity="0.75" stroke="#222222" stroke-width="2" /><text fill="#000000" font-family="monospace" font-size="10" font-weight="bold" opacity="0.4" text-anchor="middle" x="810.0" y="316.0">C4</text><path d="M 856.73 375.24 A 220 220 0 0 0 856.73 224.76 L 819.14 238.44 A 180 180 0 0 1 819.14 361.56 Z" fill="#18dcff" opacity="0.75" stroke="#222222" stroke-width="2" /><text fill="#000000" font-family="monospace" font-size="10" font-weight="bold" opacity="0.4" text-anchor="middle" x="850.0" y="316.0">D4</text><path d="M 743.97 265.80 A 100 100 0 0 0 700.00 213.40 L 680.00 248.04 A 60 60 0 0 1 706.38 279.48 Z" fill="#32ff7e" opacity="0.75" stroke="#222222" stroke-width="2" /><text fill="#000000" font-family="monospace" font-size="10" font-weight="bold" opacity="0.4" text-anchor="middle" x="711.2835554495182" y="264.5769912250769">A5</text><path d="M 781.56 252.12 A 140 140 0 0 0 720.00 178.76 L 700.00 213.40 A 100 100 0 0 1 743.97 265.80 Z" fill="#fffa65" opacity="0.75" stroke="#222222" stroke-width="2" /><text fill="#000000" font-family="monospace" font-size="10" font-weight="bold" opacity="0.4" text-anchor="middle" x="741.9253331742774" y="238.8654868376153">B5</text><path d="M 819.14 238.44 A 180 180 0 0 0 740.00 144.12 L 720.00 178.76 A 140 140 0 0 1 781.56 252.12 Z" fill="#18dcff" opacity="0.75" stroke="#222222" stroke-width="2" /><text fill="#000000" font-family="monospace" font-size="10" font-weight="bold" opacity="0.4" text-anchor="middle" x="772.5671108990365" y="213.1539824501537">C5</text><path d="M 856.73 224.76 A 220 220 0 0 0 760.00 109.47 L 740.00 144.12 A 180 180 0 0 1 819.14 238.44 Z" fill="#ff5252" opacity="0.75" stroke="#222222" stroke-width="2" /><text fill="#000000" font-family="monospace" font-size="10" font-weight="bold" opacity="0.4" text-anchor="middle" x="803.2088886237956" y="187.44247806269215">D5</text><path d="M 700.00 213.40 A 100 100 0 0 0 632.64 201.52 L 639.58 240.91 A 60 60 0 0 1 680.00 248.04 Z" fill="#fffa65" opacity="0.75" stroke="#222222" stroke-width="2" /><text fill="#000000" font-family="monospace" font-size="10" font-weight="bold" opacity="0.4" text-anchor="middle" x="663.8918542133545" y="237.21537975902336">A6</text><path d="M 720.00 178.76 A 140 140 0 0 0 625.69 162.13 L 632.64 201.52 A 100 100 0 0 1 700.00 213.40 Z" fill="#18dcff" opacity="0.75" stroke="#222222" stroke-width="2" /><text fill="#000000" font-family="monospace" font-size="10" font-weight="bold" opacity="0.4" text-anchor="middle" x="670.8377813200317" y="197.82306963853503">B6</text><path d="M 740.00 144.12 A 180 180 0 0 0 618.74 122.73 L 625.69 162.13 A 140 140 0 0 1 720.00 178.76 Z" fill="#ff5252" opacity="0.75" stroke="#222222" stroke-width="2" /><text fill="#000000" font-family="monospace" font-size="10" font-weight="bold" opacity="0.4" text-anchor="middle" x="677.7837084267088" y="158.43075951804673">C6</text><path d="M 760.00 109.47 A 220 220 0 0 0 611.80 83.34 L 618.74 122.73 A 180 180 0 0 1 740.00 144.12 Z" fill="#32ff7e" opacity="0.75" stroke="#222222" stroke-width="2" /><text fill="#000000" font-family="monospace" font-size="10" font-weight="bold" opacity="0.4" text-anchor="middle" x="684.729635533386" y="119.0384493975584">D6</text><path d="M 632.64 201.52 A 100 100 0 0 0 573.40 235.72 L 604.04 261.43 A 60 60 0 0 1 639.58 240.91 Z" fill="#18dcff" opacity="0.75" stroke="#222222" stroke-width="2" /><text fill="#000000" font-family="monospace" font-size="10" font-weight="bold" opacity="0.4" text-anchor="middle" x="610.0" y="246.7179676972449">A7</text><path d="M 625.69 162.13 A 140 140 0 0 0 542.75 210.01 L 573.40 235.72 A 100 100 0 0 1 632.64 201.52 Z" fill="#ff5252" opacity="0.75" stroke="#222222" stroke-width="2" /><text fill="#000000" font-family="monospace" font-size="10" font-weight="bold" opacity="0.4" text-anchor="middle" x="590.0" y="212.07695154586736">B7</text><path d="M 618.74 122.73 A 180 180 0 0 0 512.11 184.30 L 542.75 210.01 A 140 140 0 0 1 625.69 162.13 Z" fill="#32ff7e" opacity="0.75" stroke="#222222" stroke-width="2" /><text fill="#000000" font-family="monospace" font-size="10" font-weight="bold" opacity="0.4" text-anchor="middle" x="570.0" y="177.4359353944898">C7</text><path d="M 611.80 83.34 A 220 220 0 0 0 481.47 158.59 L 512.11 184.30 A 180 180 0 0 1 618.74 122.73 Z" fill="#fffa65" opacity="0.75" stroke="#222222" stroke-width="2" /><text fill="#000000" font-family="monospace" font-size="10" font-weight="bold" opacity="0.4" text-anchor="middle" x="550.0" y="142.79491924311225">D7</text><path d="M 573.40 235.72 A 100 100 0 0 0 550.00 300.00 L 590.00 300.00 A 60 60 0 0 1 604.04 261.43 Z" fill="#ff5252" opacity="0.75" stroke="#222222" stroke-width="2" /><text fill="#000000" font-family="monospace" font-size="10" font-weight="bold" opacity="0.4" text-anchor="middle" x="574.8245903371273" y="288.6383885339465">A8</text><path d="M 542.75 210.01 A 140 140 0 0 0 510.00 300.00 L 550.00 300.00 A 100 100 0 0 1 573.40 235.72 Z" fill="#32ff7e" opacity="0.75" stroke="#222222" stroke-width="2" /><text fill="#000000" font-family="monospace" font-size="10" font-weight="bold" opacity="0.4" text-anchor="middle" x="537.236885505691" y="274.95758280091974">B8</text><path d="M 512.11 184.30 A 180 180 0 0 0 470.00 300.00 L 510.00 300.00 A 140 140 0 0 1 542.75 210.01 Z" fill="#fffa65" opacity="0.75" stroke="#222222" stroke-width="2" /><text fill="#000000" font-family="monospace" font-size="10" font-weight="bold" opacity="0.4" text-anchor="middle" x="499.6491806742547" y="261.27677706789297">C8</text><path d="M 481.47 158.59 A 220 220 0 0 0 430.00 300.00 L 470.00 300.00 A 180 180 0 0 1 512.11 184.30 Z" fill="#18dcff" opacity="0.75" stroke="#222222" stroke-width="2" /><text fill="#000000" font-family="monospace" font-size="10" font-weight="bold" opacity="0.4" text-anchor="middle" x="462.06147584281837" y="247.59597133486622">D8</text><text fill="#ffffff" font-family="sans-serif" font-size="32" stroke="#000000" stroke-width="1.5" text-anchor="middle" x="270.0" y="310.0">♝</text><text fill="#ffffff" font-family="sans-serif" font-size="32" stroke="#000000" stroke-width="1.5" text-anchor="middle" x="258.07466682572266" y="232.86548683761526">♟</text><text fill="#ffffff" font-family="sans-serif" font-size="32" stroke="#000000" stroke-width="1.5" text-anchor="middle" x="329.16221867996836" y="191.82306963853503">♟</text><text fill="#ffffff" font-family="sans-serif" font-size="32" stroke="#000000" stroke-width="1.5" text-anchor="middle" x="410.0" y="206.07695154586736">♟</text><text fill="#ffffff" font-family="sans-serif" font-size="32" stroke="#000000" stroke-width="1.5" text-anchor="middle" x="462.763114494309" y="268.95758280091974">♟</text><text fill="#ffffff" font-family="sans-serif" font-size="32" stroke="#000000" stroke-width="1.5" text-anchor="middle" x="258.0746668257226" y="387.1345131623847">♟</text><text fill="#ffffff" font-family="sans-serif" font-size="32" stroke="#000000" stroke-width="1.5" text-anchor="middle" x="329.16221867996836" y="428.176930361465">♟</text><text fill="#ffffff" font-family="sans-serif" font-size="32" stroke="#000000" stroke-width="1.5" text-anchor="middle" x="410.0" y="413.92304845413264">♟</text><text fill="#ffffff" font-family="sans-serif" font-size="32" stroke="#000000" stroke-width="1.5" text-anchor="middle" x="462.763114494309" y="351.0424171990802">♟</text><text fill="#000000" font-family="sans-serif" font-size="32" stroke="#ffffff" stroke-width="1.5" text-anchor="middle" x="850.0" y="310.0">♚</text><text fill="#000000" font-family="sans-serif" font-size="32" stroke="#ffffff" stroke-width="1.5" text-anchor="middle" x="810.0" y="310.0">♛</text><text fill="#000000" font-family="sans-serif" font-size="32" stroke="#ffffff" stroke-width="1.5" text-anchor="middle" x="770.0" y="310.0">♝</text><text fill="#000000" font-family="sans-serif" font-size="32" stroke="#ffffff" stroke-width="1.5" text-anchor="middle" x="730.0" y="310.0">♝</text><text fill="#000000" font-family="sans-serif" font-size="32" stroke="#ffffff" stroke-width="1.5" text-anchor="middle" x="677.7837084267088" y="467.56924048195333">♞</text><text fill="#000000" font-family="sans-serif" font-size="32" stroke="#ffffff" stroke-width="1.5" text-anchor="middle" x="677.7837084267088" y="152.43075951804673">♞</text><text fill="#000000" font-family="sans-serif" font-size="32" stroke="#ffffff" stroke-width="1.5" text-anchor="middle" x="741.9253331742774" y="232.8654868376153">♟</text><text fill="#000000" font-family="sans-serif" font-size="32" stroke="#ffffff" stroke-width="1.5" text-anchor="middle" x="670.8377813200317" y="191.82306963853503">♟</text><text fill="#000000" font-family="sans-serif" font-size="32" stroke="#ffffff" stroke-width="1.5" text-anchor="middle" x="590.0" y="206.07695154586736">♟</text><text fill="#000000" font-family="sans-serif" font-size="32" stroke="#ffffff" stroke-width="1.5" text-anchor="middle" x="537.236885505691" y="268.95758280091974">♟</text><text fill="#000000" font-family="sans-serif" font-size="32" stroke="#ffffff" stroke-width="1.5" text-anchor="middle" x="741.9253331742773" y="387.13451316238474">♟</text><text fill="#000000" font-family="sans-serif" font-size="32" stroke="#ffffff" stroke-width="1.5" text-anchor="middle" x="670.8377813200316" y="428.176930361465">♟</text><text fill="#000000" font-family="sans-serif" font-size="32" stroke="#ffffff" stroke-width="1.5" text-anchor="middle" x="590.0" y="413.92304845413264">♟</text><text fill="#000000" font-family="sans-serif" font-size="32" stroke="#ffffff" stroke-width="1.5" text-anchor="middle" x="537.236885505691" y="351.04241719908026">♟</text><text fill="#ffffff" font-family="sans-serif" font-size="32" stroke="#000000" stroke-width="1.5" text-anchor="middle" x="150.0" y="310.0">♚</text><text fill="#ffffff" font-family="sans-serif" font-size="32" stroke="#000000" stroke-width="1.5" text-anchor="middle" x="190.0" y="310.0">♛</text><text fill="#ffffff" font-family="sans-serif" font-size="32" stroke="#000000" stroke-width="1.5" text-anchor="middle" x="230.0" y="310.0">♝</text><text fill="#000000" font-family="sans-serif" font-size="32" stroke="#ffffff" stroke-width="1.5" text-anchor="middle" x="684.729635533386" y="506.96155060244166">♜</text><text fill="#ffffff" font-family="sans-serif" font-size="32" stroke="#000000" stroke-width="1.5" text-anchor="middle" x="315.27036446661396" y="113.0384493975584">♜</text><text fill="#ffffff" font-family="sans-serif" font-size="32" stroke="#000000" stroke-width="1.5" text-anchor="middle" x="322.21629157329113" y="152.43075951804673">♞</text><text fill="#ffffff" font-family="sans-serif" font-size="32" stroke="#000000" stroke-width="1.5" text-anchor="middle" x="315.27036446661396" y="506.9615506024416">♜</text><text fill="#000000" font-family="sans-serif" font-size="32" stroke="#ffffff" stroke-width="1.5" text-anchor="middle" x="684.729635533386" y="113.0384493975584">♜</text><text fill="#ffffff" font-family="sans-serif" font-size="32" stroke="#000000" stroke-width="1.5" text-anchor="middle" x="322.21629157329113" y="467.5692404819533">♞</text></svg>