<?xml version="1.0" encoding="utf-8" ?>
<svg baseProfile="full" height="1200" version="1.1" width="1200" xmlns="http://www.w3.org/2000/svg" xmlns:ev="http://www.w3.org/2001/xml-events" xmlns:xlink="http://www.w3.org/1999/xlink"><defs /><rect fill="#000000" height="100%" width="100%" x="0" y="0" /><g id="board-group" transform="translate(600, 600) rotate(45) translate(-200, -200)"><rect fill="#ebd7b5" height="100" stroke="#000000" stroke-width="1.5" width="100" x="0" y="0" /><rect fill="#ad7f5d" height="100" stroke="#000000" stroke-width="1.5" width="100" x="100" y="0" /><rect fill="#ebd7b5" height="100" stroke="#000000" stroke-width="1.5" width="100" x="200" y="0" /><rect fill="#ad7f5d" height="100" stroke="#000000" stroke-width="1.5" width="100" x="300" y="0" /><rect fill="#ad7f5d" height="100" stroke="#000000" stroke-width="1.5" width="100" x="0" y="100" /><rect fill="#ebd7b5" height="100" stroke="#000000" stroke-width="1.5" width="100" x="100" y="100" /><rect fill="#ad7f5d" height="100" stroke="#000000" stroke-width="1.5" width="100" x="200" y="100" /><rect fill="#ebd7b5" height="100" stroke="#000000" stroke-width="1.5" width="100" x="300" y="100" /><rect fill="#ebd7b5" height="100" stroke="#000000" stroke-width="1.5" width="100" x="0" y="200" /><rect fill="#ad7f5d" height="100" stroke="#000000" stroke-width="1.5" width="100" x="100" y="200" /><rect fill="#ebd7b5" height="100" stroke="#000000" stroke-width="1.5" width="100" x="200" y="200" /><rect fill="#ad7f5d" height="100" stroke="#000000" stroke-width="1.5" width="100" x="300" y="200" /><rect fill="#ad7f5d" height="100" stroke="#000000" stroke-width="1.5" width="100" x="0" y="300" /><rect fill="#ebd7b5" height="100" stroke="#000000" stroke-width="1.5" width="100" x="100" y="300" /><rect fill="#ad7f5d" height="100" stroke="#000000" stroke-width="1.5" width="100" x="200" y="300" /><rect fill="#ebd7b5" height="100" stroke="#000000" stroke-width="1.5" width="100" x="300" y="300" /><rect fill="#ad7f5d" height="100" stroke="#000000" stroke-width="1.5" width="100" x="0" y="-100" /><rect fill="#ebd7b5" height="100" stroke="#000000" stroke-width="1.5" width="100" x="100" y="-100" /><rect fill="#ad7f5d" height="100" stroke="#000000" stroke-width="1.5" width="100" x="200" y="-100" /><rect fill="#ebd7b5" height="100" stroke="#000000" stroke-width="1.5" width="100" x="300" y="-100" /><rect fill="#ebd7b5" height="100" stroke="#000000" stroke-width="1.5" width="100" x="400" y="0" /><rect fill="#ad7f5d" height="100" stroke="#000000" stroke-width="1.5" width="100" x="400" y="100" /><rect fill="#ebd7b5" height="100" stroke="#000000" stroke-width="1.5" width="100" x="400" y="200" /><rect fill="#ad7f5d" height="100" stroke="#000000" stroke-width="1.5" width="100" x="400" y="300" /><rect fill="#ad7f5d" height="100" stroke="#000000" stroke-width="1.5" width="100" x="-100" y="0" /><rect fill="#ebd7b5" height="100" stroke="#000000" stroke-width="1.5" width="100" x="-100" y="100" /><rect fill="#ad7f5d" height="100" stroke="#000000" stroke-width="1.5" width="100" x="-100" y="200" /><rect fill="#ebd7b5" height="100" stroke="#000000" stroke-width="1.5" width="100" x="-100" y="300" /><rect fill="#ebd7b5" height="100" stroke="#000000" stroke-width="1.5" width="100" x="0" y="400" /><rect fill="#ad7f5d" height="100" stroke="#000000" stroke-width="1.5" width="100" x="100" y="400" /><rect fill="#ebd7b5" height="100" stroke="#000000" stroke-width="1.5" width="100" x="200" y="400" /><rect fill="#ad7f5d" height="100" stroke="#000000" stroke-width="1.5" width="100" x="300" y="400" /><path d="M 400.0 -99.99999999999999 L 300.0 -99.99999999999997 A 200 200 0 0 1 382.44294954150536 -261.80339887498945 L 441.2214747707527 -180.90169943749473 A 100 100 0 0 0 400.0 -99.99999999999999 Z" fill="#ad7f5d" stroke="#000000" stroke-width="1.5" /><path d="M 441.2214747707527 -180.90169943749473 L 382.44294954150536 -261.80339887498945 A 200 200 0 0 1 561.8033988749894 -290.21130325903073 L 530.9016994374947 -195.10565162951536 A 100 100 0 0 0 441.2214747707527 -180.90169943749473 Z" fill="#ebd7b5" stroke="#000000" stroke-width="1.5" /><path d="M 530.9016994374947 -195.10565162951536 L 561.8033988749894 -290.21130325903073 A 200 200 0 0 1 690.2113032590307 -161.8033988749895 L 595.1056516295154 -130.90169943749476 A 100 100 0 0 0 530.9016994374947 -195.10565162951536 Z" fill="#ad7f5d" stroke="#000000" stroke-width="1.5" /><path d="M 595.1056516295154 -130.90169943749476 L 690.2113032590307 -161.8033988749895 A 200 200 0 0 1 661.8033988749895 17.557050458494587 L 580.9016994374947 -41.22147477075271 A 100 100 0 0 0 595.1056516295154 -130.90169943749476 Z" fill="#ebd7b5" stroke="#000000" stroke-width="1.5" /><path d="M 580.9016994374947 -41.22147477075271 L 661.8033988749895 17.557050458494587 A 200 200 0 0 1 500.00000000000006 100.0 L 500.00000000000006 0.0 A 100 100 0 0 0 580.9016994374947 -41.22147477075271 Z" fill="#ad7f5d" stroke="#000000" stroke-width="1.5" /><path d="M 300.0 -99.99999999999997 L 200.0 -99.99999999999996 A 300 300 0 0 1 323.664424312258 -342.7050983124842 L 382.44294954150536 -261.80339887498945 A 200 200 0 0 0 300.0 -99.99999999999997 Z" fill="#ebd7b5" stroke="#000000" stroke-width="1.5" /><path d="M 382.44294954150536 -261.80339887498945 L 323.664424312258 -342.7050983124842 A 300 300 0 0 1 592.7050983124842 -385.3169548885461 L 561.8033988749894 -290.21130325903073 A 200 200 0 0 0 382.44294954150536 -261.80339887498945 Z" fill="#ad7f5d" stroke="#000000" stroke-width="1.5" /><path d="M 561.8033988749894 -290.21130325903073 L 592.7050983124842 -385.3169548885461 A 300 300 0 0 1 785.316954888546 -192.70509831248427 L 690.2113032590307 -161.8033988749895 A 200 200 0 0 0 561.8033988749894 -290.21130325903073 Z" fill="#ebd7b5" stroke="#000000" stroke-width="1.5" /><path d="M 690.2113032590307 -161.8033988749895 L 785.316954888546 -192.70509831248427 A 300 300 0 0 1 742.7050983124843 76.33557568774188 L 661.8033988749895 17.557050458494587 A 200 200 0 0 0 690.2113032590307 -161.8033988749895 Z" fill="#ad7f5d" stroke="#000000" stroke-width="1.5" /><path d="M 661.8033988749895 17.557050458494587 L 742.7050983124843 76.33557568774188 A 300 300 0 0 1 500.0000000000001 200.0 L 500.00000000000006 100.0 A 200 200 0 0 0 661.8033988749895 17.557050458494587 Z" fill="#ebd7b5" stroke="#000000" stroke-width="1.5" /><path d="M 200.0 -99.99999999999996 L 100.0 -99.99999999999996 A 400 400 0 0 1 264.8858990830107 -423.6067977499789 L 323.664424312258 -342.7050983124842 A 300 300 0 0 0 200.0 -99.99999999999996 Z" fill="#ad7f5d" stroke="#000000" stroke-width="1.5" /><path d="M 323.664424312258 -342.7050983124842 L 264.8858990830107 -423.6067977499789 A 400 400 0 0 1 623.6067977499789 -480.42260651806146 L 592.7050983124842 -385.3169548885461 A 300 300 0 0 0 323.664424312258 -342.7050983124842 Z" fill="#ebd7b5" stroke="#000000" stroke-width="1.5" /><path d="M 592.7050983124842 -385.3169548885461 L 623.6067977499789 -480.42260651806146 A 400 400 0 0 1 880.4226065180615 -223.60679774997905 L 785.316954888546 -192.70509831248427 A 300 300 0 0 0 592.7050983124842 -385.3169548885461 Z" fill="#ad7f5d" stroke="#000000" stroke-width="1.5" /><path d="M 785.316954888546 -192.70509831248427 L 880.4226065180615 -223.60679774997905 A 400 400 0 0 1 823.606797749979 135.11410091698917 L 742.7050983124843 76.33557568774188 A 300 300 0 0 0 785.316954888546 -192.70509831248427 Z" fill="#ebd7b5" stroke="#000000" stroke-width="1.5" /><path d="M 742.7050983124843 76.33557568774188 L 823.606797749979 135.11410091698917 A 400 400 0 0 1 500.0000000000001 300.0 L 500.0000000000001 200.0 A 300 300 0 0 0 742.7050983124843 76.33557568774188 Z" fill="#ad7f5d" stroke="#000000" stroke-width="1.5" /><path d="M 100.0 -99.99999999999996 L 0.0 -99.99999999999994 A 500 500 0 0 1 206.10737385376336 -504.50849718747367 L 264.8858990830107 -423.6067977499789 A 400 400 0 0 0 100.0 -99.99999999999996 Z" fill="#ebd7b5" stroke="#000000" stroke-width="1.5" /><path d="M 264.8858990830107 -423.6067977499789 L 206.10737385376336 -504.50849718747367 A 500 500 0 0 1 654.5084971874736 -575.5282581475768 L 623.6067977499789 -480.42260651806146 A 400 400 0 0 0 264.8858990830107 -423.6067977499789 Z" fill="#ad7f5d" stroke="#000000" stroke-width="1.5" /><path d="M 623.6067977499789 -480.42260651806146 L 654.5084971874736 -575.5282581475768 A 500 500 0 0 1 975.5282581475767 -254.5084971874738 L 880.4226065180615 -223.60679774997905 A 400 400 0 0 0 623.6067977499789 -480.42260651806146 Z" fill="#ebd7b5" stroke="#000000" stroke-width="1.5" /><path d="M 880.4226065180615 -223.60679774997905 L 975.5282581475767 -254.5084971874738 A 500 500 0 0 1 904.5084971874737 193.89262614623647 L 823.606797749979 135.11410091698917 A 400 400 0 0 0 880.4226065180615 -223.60679774997905 Z" fill="#ad7f5d" stroke="#000000" stroke-width="1.5" /><path d="M 823.606797749979 135.11410091698917 L 904.5084971874737 193.89262614623647 A 500 500 0 0 1 500.00000000000017 400.0 L 500.0000000000001 300.0 A 400 400 0 0 0 823.606797749979 135.11410091698917 Z" fill="#ebd7b5" stroke="#000000" stroke-width="1.5" /><path d="M 0.0 500.0 L 100.0 500.0 A 200 200 0 0 1 17.55705045849463 661.8033988749895 L -41.221474770752685 580.9016994374947 A 100 100 0 0 0 0.0 500.0 Z" fill="#ad7f5d" stroke="#000000" stroke-width="1.5" /><path d="M -41.221474770752685 580.9016994374947 L 17.55705045849463 661.8033988749895 A 200 200 0 0 1 -161.80339887498945 690.2113032590307 L -130.90169943749473 595.1056516295154 A 100 100 0 0 0 -41.221474770752685 580.9016994374947 Z" fill="#ebd7b5" stroke="#000000" stroke-width="1.5" /><path d="M -130.90169943749473 595.1056516295154 L -161.80339887498945 690.2113032590307 A 200 200 0 0 1 -290.21130325903073 561.8033988749895 L -195.10565162951536 530.9016994374947 A 100 100 0 0 0 -130.90169943749473 595.1056516295154 Z" fill="#ad7f5d" stroke="#000000" stroke-width="1.5" /><path d="M -195.10565162951536 530.9016994374947 L -290.21130325903073 561.8033988749895 A 200 200 0 0 1 -261.8033988749895 382.4429495415054 L -180.90169943749476 441.2214747707527 A 100 100 0 0 0 -195.10565162951536 530.9016994374947 Z" fill="#ebd7b5" stroke="#000000" stroke-width="1.5" /><path d="M -180.90169943749476 441.2214747707527 L -261.8033988749895 382.4429495415054 A 200 200 0 0 1 -100.00000000000004 300.0 L -100.00000000000001 400.0 A 100 100 0 0 0 -180.90169943749476 441.2214747707527 Z" fill="#ad7f5d" stroke="#000000" stroke-width="1.5" /><path d="M 100.0 500.0 L 200.0 500.0 A 300 300 0 0 1 76.33557568774194 742.7050983124842 L 17.55705045849463 661.8033988749895 A 200 200 0 0 0 100.0 500.0 Z" fill="#ebd7b5" stroke="#000000" stroke-width="1.5" /><path d="M 17.55705045849463 661.8033988749895 L 76.33557568774194 742.7050983124842 A 300 300 0 0 1 -192.7050983124842 785.3169548885461 L -161.80339887498945 690.2113032590307 A 200 200 0 0 0 17.55705045849463 661.8033988749895 Z" fill="#ad7f5d" stroke="#000000" stroke-width="1.5" /><path d="M -161.80339887498945 690.2113032590307 L -192.7050983124842 785.3169548885461 A 300 300 0 0 1 -385.31695488854604 592.7050983124842 L -290.21130325903073 561.8033988749895 A 200 200 0 0 0 -161.80339887498945 690.2113032590307 Z" fill="#ebd7b5" stroke="#000000" stroke-width="1.5" /><path d="M -290.21130325903073 561.8033988749895 L -385.31695488854604 592.7050983124842 A 300 300 0 0 1 -342.7050983124842 323.6644243122581 L -261.8033988749895 382.4429495415054 A 200 200 0 0 0 -290.21130325903073 561.8033988749895 Z" fill="#ad7f5d" stroke="#000000" stroke-width="1.5" /><path d="M -261.8033988749895 382.4429495415054 L -342.7050983124842 323.6644243122581 A 300 300 0 0 1 -100.00000000000006 200.0 L -100.00000000000004 300.0 A 200 200 0 0 0 -261.8033988749895 382.4429495415054 Z" fill="#ebd7b5" stroke="#000000" stroke-width="1.5" /><path d="M 200.0 500.0 L 300.0 500.0 A 400 400 0 0 1 135.11410091698926 823.606797749979 L 76.33557568774194 742.7050983124842 A 300 300 0 0 0 200.0 500.0 Z" fill="#ad7f5d" stroke="#000000" stroke-width="1.5" /><path d="M 76.33557568774194 742.7050983124842 L 135.11410091698926 823.606797749979 A 400 400 0 0 1 -223.60679774997894 880.4226065180615 L -192.7050983124842 785.3169548885461 A 300 300 0 0 0 76.33557568774194 742.7050983124842 Z" fill="#ebd7b5" stroke="#000000" stroke-width="1.5" /><path d="M -192.7050983124842 785.3169548885461 L -223.60679774997894 880.4226065180615 A 400 400 0 0 1 -480.4226065180614 623.606797749979 L -385.31695488854604 592.7050983124842 A 300 300 0 0 0 -192.7050983124842 785.3169548885461 Z" fill="#ad7f5d" stroke="#000000" stroke-width="1.5" /><path d="M -385.31695488854604 592.7050983124842 L -480.4226065180614 623.606797749979 A 400 400 0 0 1 -423.60679774997897 264.8858990830108 L -342.7050983124842 323.6644243122581 A 300 300 0 0 0 -385.31695488854604 592.7050983124842 Z" fill="#ebd7b5" stroke="#000000" stroke-width="1.5" /><path d="M -342.7050983124842 323.6644243122581 L -423.60679774997897 264.8858990830108 A 400 400 0 0 1 -100.00000000000007 100.0 L -100.00000000000006 200.0 A 300 300 0 0 0 -342.7050983124842 323.6644243122581 Z" fill="#ad7f5d" stroke="#000000" stroke-width="1.5" /><path d="M 300.0 500.0 L 400.0 500.0 A 500 500 0 0 1 193.89262614623658 904.5084971874737 L 135.11410091698926 823.606797749979 A 400 400 0 0 0 300.0 500.0 Z" fill="#ebd7b5" stroke="#000000" stroke-width="1.5" /><path d="M 135.11410091698926 823.606797749979 L 193.89262614623658 904.5084971874737 A 500 500 0 0 1 -254.50849718747367 975.5282581475768 L -223.60679774997894 880.4226065180615 A 400 400 0 0 0 135.11410091698926 823.606797749979 Z" fill="#ad7f5d" stroke="#000000" stroke-width="1.5" /><path d="M -223.60679774997894 880.4226065180615 L -254.50849718747367 975.5282581475768 A 500 500 0 0 1 -575.5282581475767 654.5084971874737 L -480.4226065180614 623.606797749979 A 400 400 0 0 0 -223.60679774997894 880.4226065180615 Z" fill="#ebd7b5" stroke="#000000" stroke-width="1.5" /><path d="M -480.4226065180614 623.606797749979 L -575.5282581475767 654.5084971874737 A 500 500 0 0 1 -504.5084971874737 206.10737385376348 L -423.60679774997897 264.8858990830108 A 400 400 0 0 0 -480.4226065180614 623.606797749979 Z" fill="#ad7f5d" stroke="#000000" stroke-width="1.5" /><path d="M -423.60679774997897 264.8858990830108 L -504.5084971874737 206.10737385376348 A 500 500 0 0 1 -100.00000000000009 0.0 L -100.00000000000007 100.0 A 400 400 0 0 0 -423.60679774997897 264.8858990830108 Z" fill="#ebd7b5" stroke="#000000" stroke-width="1.5" /></g></svg>