<?xml version="1.0" encoding="UTF-8"?>
<svg viewBox="0 0 2400 2400" xmlns="http://www.w3.org/2000/svg">
<rect width="100%" height="100%" fill="#000" />
<g transform="translate(1200, 1200) rotate(45) translate(-200, -200)">
<rect x="0" y="0" width="100" height="100" fill="#ad7f5d" stroke="#000" stroke-width="1.5" />
<rect x="100" y="0" width="100" height="100" fill="#ebd7b5" stroke="#000" stroke-width="1.5" />
<rect x="200" y="0" width="100" height="100" fill="#ad7f5d" stroke="#000" stroke-width="1.5" />
<rect x="300" y="0" width="100" height="100" fill="#ebd7b5" stroke="#000" stroke-width="1.5" />
<rect x="0" y="100" width="100" height="100" fill="#ebd7b5" stroke="#000" stroke-width="1.5" />
<rect x="100" y="100" width="100" height="100" fill="#ad7f5d" stroke="#000" stroke-width="1.5" />
<rect x="200" y="100" width="100" height="100" fill="#ebd7b5" stroke="#000" stroke-width="1.5" />
<rect x="300" y="100" width="100" height="100" fill="#ad7f5d" stroke="#000" stroke-width="1.5" />
<rect x="0" y="200" width="100" height="100" fill="#ad7f5d" stroke="#000" stroke-width="1.5" />
<rect x="100" y="200" width="100" height="100" fill="#ebd7b5" stroke="#000" stroke-width="1.5" />
<rect x="200" y="200" width="100" height="100" fill="#ad7f5d" stroke="#000" stroke-width="1.5" />
<rect x="300" y="200" width="100" height="100" fill="#ebd7b5" stroke="#000" stroke-width="1.5" />
<rect x="0" y="300" width="100" height="100" fill="#ebd7b5" stroke="#000" stroke-width="1.5" />
<rect x="100" y="300" width="100" height="100" fill="#ad7f5d" stroke="#000" stroke-width="1.5" />
<rect x="200" y="300" width="100" height="100" fill="#ebd7b5" stroke="#000" stroke-width="1.5" />
<rect x="300" y="300" width="100" height="100" fill="#ad7f5d" stroke="#000" stroke-width="1.5" />
<path d="M 300 0 L 300 -100 A 200 200 0 0 1 315.2240934977426 -176.53668647301785 L 407.6120467488713 -138.26834323650894 A 100 100 0 0 0 400 -100 L 400 0 Z" fill="#ad7f5d" stroke="#000" stroke-width="1.5" />
<path d="M 407.6120467488713 -138.26834323650894 L 315.2240934977426 -176.53668647301785 A 200 200 0 0 1 423.4633135269821 -284.7759065022574 L 461.73165676349106 -192.3879532511287 A 100 100 0 0 0 407.6120467488713 -138.26834323650894 Z" fill="#ebd7b5" stroke="#000" stroke-width="1.5" />
<path d="M 461.73165676349106 -192.3879532511287 L 423.4633135269821 -284.7759065022574 A 200 200 0 0 1 576.536686473018 -284.7759065022573 L 538.268343236509 -192.38795325112866 A 100 100 0 0 0 461.73165676349106 -192.3879532511287 Z" fill="#ad7f5d" stroke="#000" stroke-width="1.5" />
<path d="M 538.268343236509 -192.38795325112866 L 576.536686473018 -284.7759065022573 A 200 200 0 0 1 684.7759065022574 -176.5366864730179 L 592.3879532511287 -138.26834323650894 A 100 100 0 0 0 538.268343236509 -192.38795325112866 Z" fill="#ebd7b5" stroke="#000" stroke-width="1.5" />
<path d="M 592.3879532511287 -138.26834323650894 L 684.7759065022574 -176.5366864730179 A 200 200 0 0 1 684.7759065022574 -23.463313526982176 L 592.3879532511287 -61.73165676349109 A 100 100 0 0 0 592.3879532511287 -138.26834323650894 Z" fill="#ad7f5d" stroke="#000" stroke-width="1.5" />
<path d="M 592.3879532511287 -61.73165676349109 L 684.7759065022574 -23.463313526982176 A 200 200 0 0 1 576.5366864730179 84.77590650225736 L 538.2683432365089 -7.612046748871322 A 100 100 0 0 0 592.3879532511287 -61.73165676349109 Z" fill="#ebd7b5" stroke="#000" stroke-width="1.5" />
<path d="M 538.2683432365089 -7.612046748871322 L 576.5366864730179 84.77590650225736 A 200 200 0 0 1 500 100 L 400 100 L 400 0 L 500 0 A 100 100 0 0 0 538.2683432365089 -7.612046748871322 Z" fill="#ad7f5d" stroke="#000" stroke-width="1.5" />
<path d="M 200 0 L 200 -100 A 300 300 0 0 1 222.83614024661392 -214.80502970952676 L 315.2240934977426 -176.53668647301785 A 200 200 0 0 0 300 -100 L 300 0 Z" fill="#ebd7b5" stroke="#000" stroke-width="1.5" />
<path d="M 315.2240934977426 -176.53668647301785 L 222.83614024661392 -214.80502970952676 A 300 300 0 0 1 385.1949702904732 -377.1638597533861 L 423.4633135269821 -284.7759065022574 A 200 200 0 0 0 315.2240934977426 -176.53668647301785 Z" fill="#ad7f5d" stroke="#000" stroke-width="1.5" />
<path d="M 423.4633135269821 -284.7759065022574 L 385.1949702904732 -377.1638597533861 A 300 300 0 0 1 614.805029709527 -377.16385975338596 L 576.536686473018 -284.7759065022573 A 200 200 0 0 0 423.4633135269821 -284.7759065022574 Z" fill="#ebd7b5" stroke="#000" stroke-width="1.5" />
<path d="M 576.536686473018 -284.7759065022573 L 614.805029709527 -377.16385975338596 A 300 300 0 0 1 777.1638597533861 -214.80502970952688 L 684.7759065022574 -176.5366864730179 A 200 200 0 0 0 576.536686473018 -284.7759065022573 Z" fill="#ad7f5d" stroke="#000" stroke-width="1.5" />
<path d="M 684.7759065022574 -176.5366864730179 L 777.1638597533861 -214.80502970952688 A 300 300 0 0 1 777.1638597533861 14.805029709526735 L 684.7759065022574 -23.463313526982176 A 200 200 0 0 0 684.7759065022574 -176.5366864730179 Z" fill="#ebd7b5" stroke="#000" stroke-width="1.5" />
<path d="M 684.7759065022574 -23.463313526982176 L 777.1638597533861 14.805029709526735 A 300 300 0 0 1 614.8050297095269 177.16385975338608 L 576.5366864730179 84.77590650225736 A 200 200 0 0 0 684.7759065022574 -23.463313526982176 Z" fill="#ad7f5d" stroke="#000" stroke-width="1.5" />
<path d="M 576.5366864730179 84.77590650225736 L 614.8050297095269 177.16385975338608 A 300 300 0 0 1 500 200 L 400 200 L 400 100 L 500 100 A 200 200 0 0 0 576.5366864730179 84.77590650225736 Z" fill="#ebd7b5" stroke="#000" stroke-width="1.5" />
<path d="M 100 0 L 100 -100 A 400 400 0 0 1 130.44818699548523 -253.0733729460357 L 222.83614024661392 -214.80502970952676 A 300 300 0 0 0 200 -100 L 200 0 Z" fill="#ad7f5d" stroke="#000" stroke-width="1.5" />
<path d="M 222.83614024661392 -214.80502970952676 L 130.44818699548523 -253.0733729460357 A 400 400 0 0 1 346.92662705396424 -469.5518130045147 L 385.1949702904732 -377.1638597533861 A 300 300 0 0 0 222.83614024661392 -214.80502970952676 Z" fill="#ebd7b5" stroke="#000" stroke-width="1.5" />
<path d="M 385.1949702904732 -377.1638597533861 L 346.92662705396424 -469.5518130045147 A 400 400 0 0 1 653.073372946036 -469.55181300451466 L 614.805029709527 -377.16385975338596 A 300 300 0 0 0 385.1949702904732 -377.1638597533861 Z" fill="#ad7f5d" stroke="#000" stroke-width="1.5" />
<path d="M 614.805029709527 -377.16385975338596 L 653.073372946036 -469.55181300451466 A 400 400 0 0 1 869.5518130045148 -253.07337294603582 L 777.1638597533861 -214.80502970952688 A 300 300 0 0 0 614.805029709527 -377.16385975338596 Z" fill="#ebd7b5" stroke="#000" stroke-width="1.5" />
<path d="M 777.1638597533861 -214.80502970952688 L 869.5518130045148 -253.07337294603582 A 400 400 0 0 1 869.5518130045148 53.07337294603565 L 777.1638597533861 14.805029709526735 A 300 300 0 0 0 777.1638597533861 -214.80502970952688 Z" fill="#ad7f5d" stroke="#000" stroke-width="1.5" />
<path d="M 777.1638597533861 14.805029709526735 L 869.5518130045148 53.07337294603565 A 400 400 0 0 1 653.0733729460359 269.5518130045147 L 614.8050297095269 177.16385975338608 A 300 300 0 0 0 777.1638597533861 14.805029709526735 Z" fill="#ebd7b5" stroke="#000" stroke-width="1.5" />
<path d="M 614.8050297095269 177.16385975338608 L 653.0733729460359 269.5518130045147 A 400 400 0 0 1 500 300 L 400 300 L 400 200 L 500 200 A 300 300 0 0 0 614.8050297095269 177.16385975338608 Z" fill="#ad7f5d" stroke="#000" stroke-width="1.5" />
<path d="M 0 0 L 0 -100 A 500 500 0 0 1 38.06023374435654 -291.3417161825446 L 130.44818699548523 -253.0733729460357 A 400 400 0 0 0 100 -100 L 100 0 Z" fill="#ebd7b5" stroke="#000" stroke-width="1.5" />
<path d="M 130.44818699548523 -253.0733729460357 L 38.06023374435654 -291.3417161825446 A 500 500 0 0 1 308.65828381745524 -561.9397662556435 L 346.92662705396424 -469.5518130045147 A 400 400 0 0 0 130.44818699548523 -253.0733729460357 Z" fill="#ad7f5d" stroke="#000" stroke-width="1.5" />
<path d="M 346.92662705396424 -469.5518130045147 L 308.65828381745524 -561.9397662556435 A 500 500 0 0 1 691.341716182545 -561.9397662556432 L 653.073372946036 -469.55181300451466 A 400 400 0 0 0 346.92662705396424 -469.5518130045147 Z" fill="#ebd7b5" stroke="#000" stroke-width="1.5" />
<path d="M 653.073372946036 -469.55181300451466 L 691.341716182545 -561.9397662556432 A 500 500 0 0 1 961.9397662556435 -291.3417161825448 L 869.5518130045148 -253.07337294603582 A 400 400 0 0 0 653.073372946036 -469.55181300451466 Z" fill="#ad7f5d" stroke="#000" stroke-width="1.5" />
<path d="M 869.5518130045148 -253.07337294603582 L 961.9397662556435 -291.3417161825448 A 500 500 0 0 1 961.9397662556435 91.34171618254456 L 869.5518130045148 53.07337294603565 A 400 400 0 0 0 869.5518130045148 -253.07337294603582 Z" fill="#ebd7b5" stroke="#000" stroke-width="1.5" />
<path d="M 869.5518130045148 53.07337294603565 L 961.9397662556435 91.34171618254456 A 500 500 0 0 1 691.3417161825448 361.9397662556434 L 653.0733729460359 269.5518130045147 A 400 400 0 0 0 869.5518130045148 53.07337294603565 Z" fill="#ad7f5d" stroke="#000" stroke-width="1.5" />
<path d="M 653.0733729460359 269.5518130045147 L 691.3417161825448 361.9397662556434 A 500 500 0 0 1 500 400 L 400 400 L 400 300 L 500 300 A 400 400 0 0 0 653.0733729460359 269.5518130045147 Z" fill="#ebd7b5" stroke="#000" stroke-width="1.5" />
<path d="M 0 400 L 100 400 L 100 500 A 200 200 0 0 1 84.77590650225736 576.536686473018 L -7.612046748871322 538.2683432365089 A 100 100 0 0 0 0 500 Z" fill="#ad7f5d" stroke="#000" stroke-width="1.5" />
<path d="M -7.612046748871322 538.2683432365089 L 84.77590650225736 576.536686473018 A 200 200 0 0 1 -23.463313526982034 684.7759065022574 L -61.73165676349102 592.3879532511287 A 100 100 0 0 0 -7.612046748871322 538.2683432365089 Z" fill="#ebd7b5" stroke="#000" stroke-width="1.5" />
<path d="M -61.73165676349102 592.3879532511287 L -23.463313526982034 684.7759065022574 A 200 200 0 0 1 -176.53668647301794 684.7759065022574 L -138.26834323650897 592.3879532511287 A 100 100 0 0 0 -61.73165676349102 592.3879532511287 Z" fill="#ad7f5d" stroke="#000" stroke-width="1.5" />
<path d="M -138.26834323650897 592.3879532511287 L -176.53668647301794 684.7759065022574 A 200 200 0 0 1 -284.7759065022574 576.536686473018 L -192.3879532511287 538.2683432365089 A 100 100 0 0 0 -138.26834323650897 592.3879532511287 Z" fill="#ebd7b5" stroke="#000" stroke-width="1.5" />
<path d="M -192.3879532511287 538.2683432365089 L -284.7759065022574 576.536686473018 A 200 200 0 0 1 -284.7759065022574 423.4633135269821 L -192.3879532511287 461.73165676349106 A 100 100 0 0 0 -192.3879532511287 538.2683432365089 Z" fill="#ad7f5d" stroke="#000" stroke-width="1.5" />
<path d="M -192.3879532511287 461.73165676349106 L -284.7759065022574 423.4633135269821 A 200 200 0 0 1 -176.53668647301788 315.2240934977426 L -138.26834323650894 407.6120467488713 A 100 100 0 0 0 -192.3879532511287 461.73165676349106 Z" fill="#ebd7b5" stroke="#000" stroke-width="1.5" />
<path d="M -138.26834323650894 407.6120467488713 L -176.53668647301788 315.2240934977426 A 200 200 0 0 1 -100 300 L 0 300 L 0 400 L -100 400 A 100 100 0 0 0 -138.26834323650894 407.6120467488713 Z" fill="#ad7f5d" stroke="#000" stroke-width="1.5" />
<path d="M 100 400 L 200 400 L 200 500 A 300 300 0 0 1 177.16385975338602 614.8050297095269 L 84.77590650225736 576.536686473018 A 200 200 0 0 0 100 500 Z" fill="#ebd7b5" stroke="#000" stroke-width="1.5" />
<path d="M 84.77590650225736 576.536686473018 L 177.16385975338602 614.8050297095269 A 300 300 0 0 1 14.805029709526949 777.1638597533861 L -23.463313526982034 684.7759065022574 A 200 200 0 0 0 84.77590650225736 576.536686473018 Z" fill="#ad7f5d" stroke="#000" stroke-width="1.5" />
<path d="M -23.463313526982034 684.7759065022574 L 14.805029709526949 777.1638597533861 A 300 300 0 0 1 -214.80502970952693 777.1638597533861 L -176.53668647301794 684.7759065022574 A 200 200 0 0 0 -23.463313526982034 684.7759065022574 Z" fill="#ebd7b5" stroke="#000" stroke-width="1.5" />
<path d="M -176.53668647301794 684.7759065022574 L -214.80502970952693 777.1638597533861 A 300 300 0 0 1 -377.163859753386 614.8050297095269 L -284.7759065022574 576.536686473018 A 200 200 0 0 0 -176.53668647301794 684.7759065022574 Z" fill="#ad7f5d" stroke="#000" stroke-width="1.5" />
<path d="M -284.7759065022574 576.536686473018 L -377.163859753386 614.8050297095269 A 300 300 0 0 1 -377.1638597533861 385.19497029047324 L -284.7759065022574 423.4633135269821 A 200 200 0 0 0 -284.7759065022574 576.536686473018 Z" fill="#ebd7b5" stroke="#000" stroke-width="1.5" />
<path d="M -284.7759065022574 423.4633135269821 L -377.1638597533861 385.19497029047324 A 300 300 0 0 1 -214.80502970952685 222.83614024661392 L -176.53668647301788 315.2240934977426 A 200 200 0 0 0 -284.7759065022574 423.4633135269821 Z" fill="#ad7f5d" stroke="#000" stroke-width="1.5" />
<path d="M -176.53668647301788 315.2240934977426 L -214.80502970952685 222.83614024661392 A 300 300 0 0 1 -100 200 L 0 200 L 0 300 L -100 300 A 200 200 0 0 0 -176.53668647301788 315.2240934977426 Z" fill="#ebd7b5" stroke="#000" stroke-width="1.5" />
<path d="M 200 400 L 300 400 L 300 500 A 400 400 0 0 1 269.5518130045147 653.0733729460359 L 177.16385975338602 614.8050297095269 A 300 300 0 0 0 200 500 Z" fill="#ad7f5d" stroke="#000" stroke-width="1.5" />
<path d="M 177.16385975338602 614.8050297095269 L 269.5518130045147 653.0733729460359 A 400 400 0 0 1 53.07337294603593 869.5518130045148 L 14.805029709526949 777.1638597533861 A 300 300 0 0 0 177.16385975338602 614.8050297095269 Z" fill="#ebd7b5" stroke="#000" stroke-width="1.5" />
<path d="M 14.805029709526949 777.1638597533861 L 53.07337294603593 869.5518130045148 A 400 400 0 0 1 -253.0733729460359 869.5518130045148 L -214.80502970952693 777.1638597533861 A 300 300 0 0 0 14.805029709526949 777.1638597533861 Z" fill="#ad7f5d" stroke="#000" stroke-width="1.5" />
<path d="M -214.80502970952693 777.1638597533861 L -253.0733729460359 869.5518130045148 A 400 400 0 0 1 -469.5518130045147 653.073372946036 L -377.163859753386 614.8050297095269 A 300 300 0 0 0 -214.80502970952693 777.1638597533861 Z" fill="#ebd7b5" stroke="#000" stroke-width="1.5" />
<path d="M -377.163859753386 614.8050297095269 L -469.5518130045147 653.073372946036 A 400 400 0 0 1 -469.55181300451477 346.9266270539643 L -377.1638597533861 385.19497029047324 A 300 300 0 0 0 -377.163859753386 614.8050297095269 Z" fill="#ad7f5d" stroke="#000" stroke-width="1.5" />
<path d="M -377.1638597533861 385.19497029047324 L -469.55181300451477 346.9266270539643 A 400 400 0 0 1 -253.0733729460358 130.4481869954853 L -214.80502970952685 222.83614024661392 A 300 300 0 0 0 -377.1638597533861 385.19497029047324 Z" fill="#ebd7b5" stroke="#000" stroke-width="1.5" />
<path d="M -214.80502970952685 222.83614024661392 L -253.0733729460358 130.4481869954853 A 400 400 0 0 1 -100 100 L 0 100 L 0 200 L -100 200 A 300 300 0 0 0 -214.80502970952685 222.83614024661392 Z" fill="#ad7f5d" stroke="#000" stroke-width="1.5" />
<path d="M 300 400 L 400 400 L 400 500 A 500 500 0 0 1 361.93976625564335 691.3417161825449 L 269.5518130045147 653.0733729460359 A 400 400 0 0 0 300 500 Z" fill="#ebd7b5" stroke="#000" stroke-width="1.5" />
<path d="M 269.5518130045147 653.0733729460359 L 361.93976625564335 691.3417161825449 A 500 500 0 0 1 91.34171618254493 961.9397662556433 L 53.07337294603593 869.5518130045148 A 400 400 0 0 0 269.5518130045147 653.0733729460359 Z" fill="#ad7f5d" stroke="#000" stroke-width="1.5" />
<path d="M 53.07337294603593 869.5518130045148 L 91.34171618254493 961.9397662556433 A 500 500 0 0 1 -291.34171618254487 961.9397662556433 L -253.0733729460359 869.5518130045148 A 400 400 0 0 0 53.07337294603593 869.5518130045148 Z" fill="#ebd7b5" stroke="#000" stroke-width="1.5" />
<path d="M -253.0733729460359 869.5518130045148 L -291.34171618254487 961.9397662556433 A 500 500 0 0 1 -561.9397662556433 691.3417161825449 L -469.5518130045147 653.073372946036 A 400 400 0 0 0 -253.0733729460359 869.5518130045148 Z" fill="#ad7f5d" stroke="#000" stroke-width="1.5" />
<path d="M -469.5518130045147 653.073372946036 L -561.9397662556433 691.3417161825449 A 500 500 0 0 1 -561.9397662556435 308.6582838174554 L -469.55181300451477 346.9266270539643 A 400 400 0 0 0 -469.5518130045147 653.073372946036 Z" fill="#ebd7b5" stroke="#000" stroke-width="1.5" />
<path d="M -469.55181300451477 346.9266270539643 L -561.9397662556435 308.6582838174554 A 500 500 0 0 1 -291.34171618254476 38.060233744356594 L -253.0733729460358 130.4481869954853 A 400 400 0 0 0 -469.55181300451477 346.9266270539643 Z" fill="#ad7f5d" stroke="#000" stroke-width="1.5" />
<path d="M -253.0733729460358 130.4481869954853 L -291.34171618254476 38.060233744356594 A 500 500 0 0 1 -100 0 L 0 0 L 0 100 L -100 100 A 400 400 0 0 0 -253.0733729460358 130.4481869954853 Z" fill="#ebd7b5" stroke="#000" stroke-width="1.5" />
<line x1="400" y1="0" x2="400" y2="400" stroke="#ec4899" stroke-width="8" stroke-linecap="round" />
<line x1="0" y1="0" x2="0" y2="400" stroke="#ec4899" stroke-width="8" stroke-linecap="round" />
<text x="50" y="50" dy="0.35em" transform="rotate(-45, 50, 50)" fill="#3b82f6" font-family="monospace" font-size="16" font-weight="700" text-anchor="middle">D8</text>
<text x="150" y="50" dy="0.35em" transform="rotate(-45, 150, 50)" fill="#3b82f6" font-family="monospace" font-size="16" font-weight="700" text-anchor="middle">C8</text>
<text x="250" y="50" dy="0.35em" transform="rotate(-45, 250, 50)" fill="#3b82f6" font-family="monospace" font-size="16" font-weight="700" text-anchor="middle">B8</text>
<text x="350" y="50" dy="0.35em" transform="rotate(-45, 350, 50)" fill="#3b82f6" font-family="monospace" font-size="16" font-weight="700" text-anchor="middle">A8</text>
<text x="50" y="150" dy="0.35em" transform="rotate(-45, 50, 150)" fill="#3b82f6" font-family="monospace" font-size="16" font-weight="700" text-anchor="middle">D9</text>
<text x="150" y="150" dy="0.35em" transform="rotate(-45, 150, 150)" fill="#3b82f6" font-family="monospace" font-size="16" font-weight="700" text-anchor="middle">C9</text>
<text x="250" y="150" dy="0.35em" transform="rotate(-45, 250, 150)" fill="#3b82f6" font-family="monospace" font-size="16" font-weight="700" text-anchor="middle">B9</text>
<text x="350" y="150" dy="0.35em" transform="rotate(-45, 350, 150)" fill="#3b82f6" font-family="monospace" font-size="16" font-weight="700" text-anchor="middle">A9</text>
<text x="50" y="250" dy="0.35em" transform="rotate(-45, 50, 250)" fill="#3b82f6" font-family="monospace" font-size="16" font-weight="700" text-anchor="middle">D10</text>
<text x="150" y="250" dy="0.35em" transform="rotate(-45, 150, 250)" fill="#3b82f6" font-family="monospace" font-size="16" font-weight="700" text-anchor="middle">C10</text>
<text x="250" y="250" dy="0.35em" transform="rotate(-45, 250, 250)" fill="#3b82f6" font-family="monospace" font-size="16" font-weight="700" text-anchor="middle">B10</text>
<text x="350" y="250" dy="0.35em" transform="rotate(-45, 350, 250)" fill="#3b82f6" font-family="monospace" font-size="16" font-weight="700" text-anchor="middle">A10</text>
<text x="50" y="350" dy="0.35em" transform="rotate(-45, 50, 350)" fill="#3b82f6" font-family="monospace" font-size="16" font-weight="700" text-anchor="middle">D11</text>
<text x="150" y="350" dy="0.35em" transform="rotate(-45, 150, 350)" fill="#3b82f6" font-family="monospace" font-size="16" font-weight="700" text-anchor="middle">C11</text>
<text x="250" y="350" dy="0.35em" transform="rotate(-45, 250, 350)" fill="#3b82f6" font-family="monospace" font-size="16" font-weight="700" text-anchor="middle">B11</text>
<text x="350" y="350" dy="0.35em" transform="rotate(-45, 350, 350)" fill="#3b82f6" font-family="monospace" font-size="16" font-weight="700" text-anchor="middle">A11</text>
<text x="350" y="-50" dy="0.35em" transform="rotate(-45, 350, -50)" fill="#3b82f6" font-family="monospace" font-size="16" font-weight="700" text-anchor="middle">A7</text>
<text x="393.93398282201787" y="-206.06601717798213" dy="0.35em" transform="rotate(-45, 393.93398282201787, -206.06601717798213)" fill="#3b82f6" font-family="monospace" font-size="16" font-weight="700" text-anchor="middle">A6</text>
<text x="500.0" y="-250.0" dy="0.35em" transform="rotate(-45, 500.0, -250.0)" fill="#3b82f6" font-family="monospace" font-size="16" font-weight="700" text-anchor="middle">A5</text>
<text x="606.0660171779821" y="-206.06601717798213" dy="0.35em" transform="rotate(-45, 606.0660171779821, -206.06601717798213)" fill="#3b82f6" font-family="monospace" font-size="16" font-weight="700" text-anchor="middle">A4</text>
<text x="650.0" y="-100.00000000000004" dy="0.35em" transform="rotate(-45, 650.0, -100.00000000000004)" fill="#3b82f6" font-family="monospace" font-size="16" font-weight="700" text-anchor="middle">A3</text>
<text x="606.0660171779823" y="6.066017177982005" dy="0.35em" transform="rotate(-45, 606.0660171779823, 6.066017177982005)" fill="#3b82f6" font-family="monospace" font-size="16" font-weight="700" text-anchor="middle">A2</text>
<text x="450" y="50" dy="0.35em" transform="rotate(-45, 450, 50)" fill="#3b82f6" font-family="monospace" font-size="16" font-weight="700" text-anchor="middle">A1</text>
<text x="250" y="-50" dy="0.35em" transform="rotate(-45, 250, -50)" fill="#3b82f6" font-family="monospace" font-size="16" font-weight="700" text-anchor="middle">B7</text>
<text x="323.22330470336306" y="-276.77669529663683" dy="0.35em" transform="rotate(-45, 323.22330470336306, -276.77669529663683)" fill="#3b82f6" font-family="monospace" font-size="16" font-weight="700" text-anchor="middle">B6</text>
<text x="499.99999999999994" y="-350.0" dy="0.35em" transform="rotate(-45, 499.99999999999994, -350.0)" fill="#3b82f6" font-family="monospace" font-size="16" font-weight="700" text-anchor="middle">B5</text>
<text x="676.7766952966368" y="-276.77669529663694" dy="0.35em" transform="rotate(-45, 676.7766952966368, -276.77669529663694)" fill="#3b82f6" font-family="monospace" font-size="16" font-weight="700" text-anchor="middle">B4</text>
<text x="750.0" y="-100.00000000000006" dy="0.35em" transform="rotate(-45, 750.0, -100.00000000000006)" fill="#3b82f6" font-family="monospace" font-size="16" font-weight="700" text-anchor="middle">B3</text>
<text x="676.7766952966371" y="76.77669529663666" dy="0.35em" transform="rotate(-45, 676.7766952966371, 76.77669529663666)" fill="#3b82f6" font-family="monospace" font-size="16" font-weight="700" text-anchor="middle">B2</text>
<text x="450" y="150" dy="0.35em" transform="rotate(-45, 450, 150)" fill="#3b82f6" font-family="monospace" font-size="16" font-weight="700" text-anchor="middle">B1</text>
<text x="150" y="-50" dy="0.35em" transform="rotate(-45, 150, -50)" fill="#3b82f6" font-family="monospace" font-size="16" font-weight="700" text-anchor="middle">C7</text>
<text x="252.5126265847083" y="-347.4873734152916" dy="0.35em" transform="rotate(-45, 252.5126265847083, -347.4873734152916)" fill="#3b82f6" font-family="monospace" font-size="16" font-weight="700" text-anchor="middle">C6</text>
<text x="499.99999999999994" y="-450.0" dy="0.35em" transform="rotate(-45, 499.99999999999994, -450.0)" fill="#3b82f6" font-family="monospace" font-size="16" font-weight="700" text-anchor="middle">C5</text>
<text x="747.4873734152916" y="-347.4873734152917" dy="0.35em" transform="rotate(-45, 747.4873734152916, -347.4873734152917)" fill="#3b82f6" font-family="monospace" font-size="16" font-weight="700" text-anchor="middle">C4</text>
<text x="850.0" y="-100.00000000000009" dy="0.35em" transform="rotate(-45, 850.0, -100.00000000000009)" fill="#3b82f6" font-family="monospace" font-size="16" font-weight="700" text-anchor="middle">C3</text>
<text x="747.4873734152919" y="147.48737341529133" dy="0.35em" transform="rotate(-45, 747.4873734152919, 147.48737341529133)" fill="#3b82f6" font-family="monospace" font-size="16" font-weight="700" text-anchor="middle">C2</text>
<text x="450" y="250" dy="0.35em" transform="rotate(-45, 450, 250)" fill="#3b82f6" font-family="monospace" font-size="16" font-weight="700" text-anchor="middle">C1</text>
<text x="50" y="-50" dy="0.35em" transform="rotate(-45, 50, -50)" fill="#3b82f6" font-family="monospace" font-size="16" font-weight="700" text-anchor="middle">D7</text>
<text x="181.80194846605355" y="-418.19805153394634" dy="0.35em" transform="rotate(-45, 181.80194846605355, -418.19805153394634)" fill="#3b82f6" font-family="monospace" font-size="16" font-weight="700" text-anchor="middle">D6</text>
<text x="499.99999999999994" y="-550.0" dy="0.35em" transform="rotate(-45, 499.99999999999994, -550.0)" fill="#3b82f6" font-family="monospace" font-size="16" font-weight="700" text-anchor="middle">D5</text>
<text x="818.1980515339462" y="-418.19805153394645" dy="0.35em" transform="rotate(-45, 818.1980515339462, -418.19805153394645)" fill="#3b82f6" font-family="monospace" font-size="16" font-weight="700" text-anchor="middle">D4</text>
<text x="950.0" y="-100.00000000000011" dy="0.35em" transform="rotate(-45, 950.0, -100.00000000000011)" fill="#3b82f6" font-family="monospace" font-size="16" font-weight="700" text-anchor="middle">D3</text>
<text x="818.1980515339467" y="218.198051533946" dy="0.35em" transform="rotate(-45, 818.1980515339467, 218.198051533946)" fill="#3b82f6" font-family="monospace" font-size="16" font-weight="700" text-anchor="middle">D2</text>
<text x="450" y="350" dy="0.35em" transform="rotate(-45, 450, 350)" fill="#3b82f6" font-family="monospace" font-size="16" font-weight="700" text-anchor="middle">D1</text>
<text x="50" y="450" dy="0.35em" transform="rotate(-45, 50, 450)" fill="#3b82f6" font-family="monospace" font-size="16" font-weight="700" text-anchor="middle">D12</text>
<text x="6.066017177982133" y="606.0660171779821" dy="0.35em" transform="rotate(-45, 6.066017177982133, 606.0660171779821)" fill="#3b82f6" font-family="monospace" font-size="16" font-weight="700" text-anchor="middle">D13</text>
<text x="-99.99999999999999" y="650.0" dy="0.35em" transform="rotate(-45, -99.99999999999999, 650.0)" fill="#3b82f6" font-family="monospace" font-size="16" font-weight="700" text-anchor="middle">D14</text>
<text x="-206.06601717798213" y="606.0660171779821" dy="0.35em" transform="rotate(-45, -206.06601717798213, 606.0660171779821)" fill="#3b82f6" font-family="monospace" font-size="16" font-weight="700" text-anchor="middle">D15</text>
<text x="-250.0" y="500.0" dy="0.35em" transform="rotate(-45, -250.0, 500.0)" fill="#3b82f6" font-family="monospace" font-size="16" font-weight="700" text-anchor="middle">D16</text>
<text x="-206.06601717798213" y="393.93398282201787" dy="0.35em" transform="rotate(-45, -206.06601717798213, 393.93398282201787)" fill="#3b82f6" font-family="monospace" font-size="16" font-weight="700" text-anchor="middle">D17</text>
<text x="-50" y="350" dy="0.35em" transform="rotate(-45, -50, 350)" fill="#3b82f6" font-family="monospace" font-size="16" font-weight="700" text-anchor="middle">D18</text>
<text x="150" y="450" dy="0.35em" transform="rotate(-45, 150, 450)" fill="#3b82f6" font-family="monospace" font-size="16" font-weight="700" text-anchor="middle">C12</text>
<text x="76.77669529663689" y="676.7766952966368" dy="0.35em" transform="rotate(-45, 76.77669529663689, 676.7766952966368)" fill="#3b82f6" font-family="monospace" font-size="16" font-weight="700" text-anchor="middle">C13</text>
<text x="-99.99999999999999" y="750.0" dy="0.35em" transform="rotate(-45, -99.99999999999999, 750.0)" fill="#3b82f6" font-family="monospace" font-size="16" font-weight="700" text-anchor="middle">C14</text>
<text x="-276.77669529663683" y="676.776695296637" dy="0.35em" transform="rotate(-45, -276.77669529663683, 676.776695296637)" fill="#3b82f6" font-family="monospace" font-size="16" font-weight="700" text-anchor="middle">C15</text>
<text x="-350.0" y="500.00000000000006" dy="0.35em" transform="rotate(-45, -350.0, 500.00000000000006)" fill="#3b82f6" font-family="monospace" font-size="16" font-weight="700" text-anchor="middle">C16</text>
<text x="-276.77669529663694" y="323.22330470336317" dy="0.35em" transform="rotate(-45, -276.77669529663694, 323.22330470336317)" fill="#3b82f6" font-family="monospace" font-size="16" font-weight="700" text-anchor="middle">C17</text>
<text x="-50" y="250" dy="0.35em" transform="rotate(-45, -50, 250)" fill="#3b82f6" font-family="monospace" font-size="16" font-weight="700" text-anchor="middle">C18</text>
<text x="250" y="450" dy="0.35em" transform="rotate(-45, 250, 450)" fill="#3b82f6" font-family="monospace" font-size="16" font-weight="700" text-anchor="middle">B12</text>
<text x="147.48737341529164" y="747.4873734152916" dy="0.35em" transform="rotate(-45, 147.48737341529164, 747.4873734152916)" fill="#3b82f6" font-family="monospace" font-size="16" font-weight="700" text-anchor="middle">B13</text>
<text x="-99.99999999999997" y="850.0" dy="0.35em" transform="rotate(-45, -99.99999999999997, 850.0)" fill="#3b82f6" font-family="monospace" font-size="16" font-weight="700" text-anchor="middle">B14</text>
<text x="-347.4873734152916" y="747.4873734152916" dy="0.35em" transform="rotate(-45, -347.4873734152916, 747.4873734152916)" fill="#3b82f6" font-family="monospace" font-size="16" font-weight="700" text-anchor="middle">B15</text>
<text x="-450.0" y="500.00000000000006" dy="0.35em" transform="rotate(-45, -450.0, 500.00000000000006)" fill="#3b82f6" font-family="monospace" font-size="16" font-weight="700" text-anchor="middle">B16</text>
<text x="-347.4873734152917" y="252.51262658470839" dy="0.35em" transform="rotate(-45, -347.4873734152917, 252.51262658470839)" fill="#3b82f6" font-family="monospace" font-size="16" font-weight="700" text-anchor="middle">B17</text>
<text x="-50" y="150" dy="0.35em" transform="rotate(-45, -50, 150)" fill="#3b82f6" font-family="monospace" font-size="16" font-weight="700" text-anchor="middle">B18</text>
<text x="350" y="450" dy="0.35em" transform="rotate(-45, 350, 450)" fill="#3b82f6" font-family="monospace" font-size="16" font-weight="700" text-anchor="middle">A12</text>
<text x="218.1980515339464" y="818.1980515339463" dy="0.35em" transform="rotate(-45, 218.1980515339464, 818.1980515339463)" fill="#3b82f6" font-family="monospace" font-size="16" font-weight="700" text-anchor="middle">A13</text>
<text x="-99.99999999999997" y="950.0" dy="0.35em" transform="rotate(-45, -99.99999999999997, 950.0)" fill="#3b82f6" font-family="monospace" font-size="16" font-weight="700" text-anchor="middle">A14</text>
<text x="-418.19805153394634" y="818.1980515339465" dy="0.35em" transform="rotate(-45, -418.19805153394634, 818.1980515339465)" fill="#3b82f6" font-family="monospace" font-size="16" font-weight="700" text-anchor="middle">A15</text>
<text x="-550.0" y="500.00000000000006" dy="0.35em" transform="rotate(-45, -550.0, 500.00000000000006)" fill="#3b82f6" font-family="monospace" font-size="16" font-weight="700" text-anchor="middle">A16</text>
<text x="-418.19805153394645" y="181.80194846605366" dy="0.35em" transform="rotate(-45, -418.19805153394645, 181.80194846605366)" fill="#3b82f6" font-family="monospace" font-size="16" font-weight="700" text-anchor="middle">A17</text>
<text x="-50" y="50" dy="0.35em" transform="rotate(-45, -50, 50)" fill="#3b82f6" font-family="monospace" font-size="16" font-weight="700" text-anchor="middle">A18</text>
</g>
</svg>