<?xml version="1.0" encoding="utf-8" ?>
<svg baseProfile="full" height="1100" version="1.1" viewBox="0 0 2200 1100" width="2200" xmlns="http://www.w3.org/2000/svg" xmlns:ev="http://www.w3.org/2001/xml-events" xmlns:xlink="http://www.w3.org/1999/xlink"><defs /><rect fill="#000000" height="100%" width="100%" x="0" y="0" /><g id="board-group" transform="translate(1100.0, 550.0) scale(0.9) rotate(45) translate(-200, -200)"><rect fill="#ebd7b5" height="100" stroke="#000000" stroke-width="1.5" width="100" x="0" y="0" /><rect fill="#ad7f5d" height="100" stroke="#000000" stroke-width="1.5" width="100" x="100" y="0" /><rect fill="#ebd7b5" height="100" stroke="#000000" stroke-width="1.5" width="100" x="200" y="0" /><rect fill="#ad7f5d" height="100" stroke="#000000" stroke-width="1.5" width="100" x="300" y="0" /><rect fill="#ad7f5d" height="100" stroke="#000000" stroke-width="1.5" width="100" x="0" y="100" /><rect fill="#ebd7b5" height="100" stroke="#000000" stroke-width="1.5" width="100" x="100" y="100" /><rect fill="#ad7f5d" height="100" stroke="#000000" stroke-width="1.5" width="100" x="200" y="100" /><rect fill="#ebd7b5" height="100" stroke="#000000" stroke-width="1.5" width="100" x="300" y="100" /><rect fill="#ebd7b5" height="100" stroke="#000000" stroke-width="1.5" width="100" x="0" y="200" /><rect fill="#ad7f5d" height="100" stroke="#000000" stroke-width="1.5" width="100" x="100" y="200" /><rect fill="#ebd7b5" height="100" stroke="#000000" stroke-width="1.5" width="100" x="200" y="200" /><rect fill="#ad7f5d" height="100" stroke="#000000" stroke-width="1.5" width="100" x="300" y="200" /><rect fill="#ad7f5d" height="100" stroke="#000000" stroke-width="1.5" width="100" x="0" y="300" /><rect fill="#ebd7b5" height="100" stroke="#000000" stroke-width="1.5" width="100" x="100" y="300" /><rect fill="#ad7f5d" height="100" stroke="#000000" stroke-width="1.5" width="100" x="200" y="300" /><rect fill="#ebd7b5" height="100" stroke="#000000" stroke-width="1.5" width="100" x="300" y="300" /><rect fill="#ad7f5d" height="100" stroke="#000000" stroke-width="1.5" width="100" x="0" y="-100" /><rect fill="#ebd7b5" height="100" stroke="#000000" stroke-width="1.5" width="100" x="100" y="-100" /><rect fill="#ad7f5d" height="100" stroke="#000000" stroke-width="1.5" width="100" x="200" y="-100" /><rect fill="#ebd7b5" height="100" stroke="#000000" stroke-width="1.5" width="100" x="300" y="-100" /><rect fill="#ebd7b5" height="100" stroke="#000000" stroke-width="1.5" width="100" x="400" y="0" /><rect fill="#ad7f5d" height="100" stroke="#000000" stroke-width="1.5" width="100" x="400" y="100" /><rect fill="#ebd7b5" height="100" stroke="#000000" stroke-width="1.5" width="100" x="400" y="200" /><rect fill="#ad7f5d" height="100" stroke="#000000" stroke-width="1.5" width="100" x="400" y="300" /><rect fill="#ad7f5d" height="100" stroke="#000000" stroke-width="1.5" width="100" x="-100" y="0" /><rect fill="#ebd7b5" height="100" stroke="#000000" stroke-width="1.5" width="100" x="-100" y="100" /><rect fill="#ad7f5d" height="100" stroke="#000000" stroke-width="1.5" width="100" x="-100" y="200" /><rect fill="#ebd7b5" height="100" stroke="#000000" stroke-width="1.5" width="100" x="-100" y="300" /><rect fill="#ebd7b5" height="100" stroke="#000000" stroke-width="1.5" width="100" x="0" y="400" /><rect fill="#ad7f5d" height="100" stroke="#000000" stroke-width="1.5" width="100" x="100" y="400" /><rect fill="#ebd7b5" height="100" stroke="#000000" stroke-width="1.5" width="100" x="200" y="400" /><rect fill="#ad7f5d" height="100" stroke="#000000" stroke-width="1.5" width="100" x="300" y="400" /><path d="M 400.0 -99.99999999999999 L 300.0 -99.99999999999997 A 200 200 0 0 1 382.44294954150536 -261.80339887498945 L 441.2214747707527 -180.90169943749473 A 100 100 0 0 0 400.0 -99.99999999999999 Z" fill="#ad7f5d" stroke="#000000" stroke-width="1.5" /><path d="M 441.2214747707527 -180.90169943749473 L 382.44294954150536 -261.80339887498945 A 200 200 0 0 1 561.8033988749894 -290.21130325903073 L 530.9016994374947 -195.10565162951536 A 100 100 0 0 0 441.2214747707527 -180.90169943749473 Z" fill="#ebd7b5" stroke="#000000" stroke-width="1.5" /><path d="M 530.9016994374947 -195.10565162951536 L 561.8033988749894 -290.21130325903073 A 200 200 0 0 1 690.2113032590307 -161.8033988749895 L 595.1056516295154 -130.90169943749476 A 100 100 0 0 0 530.9016994374947 -195.10565162951536 Z" fill="#ad7f5d" stroke="#000000" stroke-width="1.5" /><path d="M 595.1056516295154 -130.90169943749476 L 690.2113032590307 -161.8033988749895 A 200 200 0 0 1 661.8033988749895 17.557050458494587 L 580.9016994374947 -41.22147477075271 A 100 100 0 0 0 595.1056516295154 -130.90169943749476 Z" fill="#ebd7b5" stroke="#000000" stroke-width="1.5" /><path d="M 580.9016994374947 -41.22147477075271 L 661.8033988749895 17.557050458494587 A 200 200 0 0 1 500.00000000000006 100.0 L 500.00000000000006 0.0 A 100 100 0 0 0 580.9016994374947 -41.22147477075271 Z" fill="#ad7f5d" stroke="#000000" stroke-width="1.5" /><path d="M 300.0 -99.99999999999997 L 200.0 -99.99999999999996 A 300 300 0 0 1 323.664424312258 -342.7050983124842 L 382.44294954150536 -261.80339887498945 A 200 200 0 0 0 300.0 -99.99999999999997 Z" fill="#ebd7b5" stroke="#000000" stroke-width="1.5" /><path d="M 382.44294954150536 -261.80339887498945 L 323.664424312258 -342.7050983124842 A 300 300 0 0 1 592.7050983124842 -385.3169548885461 L 561.8033988749894 -290.21130325903073 A 200 200 0 0 0 382.44294954150536 -261.80339887498945 Z" fill="#ad7f5d" stroke="#000000" stroke-width="1.5" /><path d="M 561.8033988749894 -290.21130325903073 L 592.7050983124842 -385.3169548885461 A 300 300 0 0 1 785.316954888546 -192.70509831248427 L 690.2113032590307 -161.8033988749895 A 200 200 0 0 0 561.8033988749894 -290.21130325903073 Z" fill="#ebd7b5" stroke="#000000" stroke-width="1.5" /><path d="M 690.2113032590307 -161.8033988749895 L 785.316954888546 -192.70509831248427 A 300 300 0 0 1 742.7050983124843 76.33557568774188 L 661.8033988749895 17.557050458494587 A 200 200 0 0 0 690.2113032590307 -161.8033988749895 Z" fill="#ad7f5d" stroke="#000000" stroke-width="1.5" /><path d="M 661.8033988749895 17.557050458494587 L 742.7050983124843 76.33557568774188 A 300 300 0 0 1 500.0000000000001 200.0 L 500.00000000000006 100.0 A 200 200 0 0 0 661.8033988749895 17.557050458494587 Z" fill="#ebd7b5" stroke="#000000" stroke-width="1.5" /><path d="M 200.0 -99.99999999999996 L 100.0 -99.99999999999996 A 400 400 0 0 1 264.8858990830107 -423.6067977499789 L 323.664424312258 -342.7050983124842 A 300 300 0 0 0 200.0 -99.99999999999996 Z" fill="#ad7f5d" stroke="#000000" stroke-width="1.5" /><path d="M 323.664424312258 -342.7050983124842 L 264.8858990830107 -423.6067977499789 A 400 400 0 0 1 623.6067977499789 -480.42260651806146 L 592.7050983124842 -385.3169548885461 A 300 300 0 0 0 323.664424312258 -342.7050983124842 Z" fill="#ebd7b5" stroke="#000000" stroke-width="1.5" /><path d="M 592.7050983124842 -385.3169548885461 L 623.6067977499789 -480.42260651806146 A 400 400 0 0 1 880.4226065180615 -223.60679774997905 L 785.316954888546 -192.70509831248427 A 300 300 0 0 0 592.7050983124842 -385.3169548885461 Z" fill="#ad7f5d" stroke="#000000" stroke-width="1.5" /><path d="M 785.316954888546 -192.70509831248427 L 880.4226065180615 -223.60679774997905 A 400 400 0 0 1 823.606797749979 135.11410091698917 L 742.7050983124843 76.33557568774188 A 300 300 0 0 0 785.316954888546 -192.70509831248427 Z" fill="#ebd7b5" stroke="#000000" stroke-width="1.5" /><path d="M 742.7050983124843 76.33557568774188 L 823.606797749979 135.11410091698917 A 400 400 0 0 1 500.0000000000001 300.0 L 500.0000000000001 200.0 A 300 300 0 0 0 742.7050983124843 76.33557568774188 Z" fill="#ad7f5d" stroke="#000000" stroke-width="1.5" /><path d="M 100.0 -99.99999999999996 L 0.0 -99.99999999999994 A 500 500 0 0 1 206.10737385376336 -504.50849718747367 L 264.8858990830107 -423.6067977499789 A 400 400 0 0 0 100.0 -99.99999999999996 Z" fill="#ebd7b5" stroke="#000000" stroke-width="1.5" /><path d="M 264.8858990830107 -423.6067977499789 L 206.10737385376336 -504.50849718747367 A 500 500 0 0 1 654.5084971874736 -575.5282581475768 L 623.6067977499789 -480.42260651806146 A 400 400 0 0 0 264.8858990830107 -423.6067977499789 Z" fill="#ad7f5d" stroke="#000000" stroke-width="1.5" /><path d="M 623.6067977499789 -480.42260651806146 L 654.5084971874736 -575.5282581475768 A 500 500 0 0 1 975.5282581475767 -254.5084971874738 L 880.4226065180615 -223.60679774997905 A 400 400 0 0 0 623.6067977499789 -480.42260651806146 Z" fill="#ebd7b5" stroke="#000000" stroke-width="1.5" /><path d="M 880.4226065180615 -223.60679774997905 L 975.5282581475767 -254.5084971874738 A 500 500 0 0 1 904.5084971874737 193.89262614623647 L 823.606797749979 135.11410091698917 A 400 400 0 0 0 880.4226065180615 -223.60679774997905 Z" fill="#ad7f5d" stroke="#000000" stroke-width="1.5" /><path d="M 823.606797749979 135.11410091698917 L 904.5084971874737 193.89262614623647 A 500 500 0 0 1 500.00000000000017 400.0 L 500.0000000000001 300.0 A 400 400 0 0 0 823.606797749979 135.11410091698917 Z" fill="#ebd7b5" stroke="#000000" stroke-width="1.5" /><path d="M 0.0 500.0 L 100.0 500.0 A 200 200 0 0 1 17.55705045849463 661.8033988749895 L -41.221474770752685 580.9016994374947 A 100 100 0 0 0 0.0 500.0 Z" fill="#ad7f5d" stroke="#000000" stroke-width="1.5" /><path d="M -41.221474770752685 580.9016994374947 L 17.55705045849463 661.8033988749895 A 200 200 0 0 1 -161.80339887498945 690.2113032590307 L -130.90169943749473 595.1056516295154 A 100 100 0 0 0 -41.221474770752685 580.9016994374947 Z" fill="#ebd7b5" stroke="#000000" stroke-width="1.5" /><path d="M -130.90169943749473 595.1056516295154 L -161.80339887498945 690.2113032590307 A 200 200 0 0 1 -290.21130325903073 561.8033988749895 L -195.10565162951536 530.9016994374947 A 100 100 0 0 0 -130.90169943749473 595.1056516295154 Z" fill="#ad7f5d" stroke="#000000" stroke-width="1.5" /><path d="M -195.10565162951536 530.9016994374947 L -290.21130325903073 561.8033988749895 A 200 200 0 0 1 -261.8033988749895 382.4429495415054 L -180.90169943749476 441.2214747707527 A 100 100 0 0 0 -195.10565162951536 530.9016994374947 Z" fill="#ebd7b5" stroke="#000000" stroke-width="1.5" /><path d="M -180.90169943749476 441.2214747707527 L -261.8033988749895 382.4429495415054 A 200 200 0 0 1 -100.00000000000004 300.0 L -100.00000000000001 400.0 A 100 100 0 0 0 -180.90169943749476 441.2214747707527 Z" fill="#ad7f5d" stroke="#000000" stroke-width="1.5" /><path d="M 100.0 500.0 L 200.0 500.0 A 300 300 0 0 1 76.33557568774194 742.7050983124842 L 17.55705045849463 661.8033988749895 A 200 200 0 0 0 100.0 500.0 Z" fill="#ebd7b5" stroke="#000000" stroke-width="1.5" /><path d="M 17.55705045849463 661.8033988749895 L 76.33557568774194 742.7050983124842 A 300 300 0 0 1 -192.7050983124842 785.3169548885461 L -161.80339887498945 690.2113032590307 A 200 200 0 0 0 17.55705045849463 661.8033988749895 Z" fill="#ad7f5d" stroke="#000000" stroke-width="1.5" /><path d="M -161.80339887498945 690.2113032590307 L -192.7050983124842 785.3169548885461 A 300 300 0 0 1 -385.31695488854604 592.7050983124842 L -290.21130325903073 561.8033988749895 A 200 200 0 0 0 -161.80339887498945 690.2113032590307 Z" fill="#ebd7b5" stroke="#000000" stroke-width="1.5" /><path d="M -290.21130325903073 561.8033988749895 L -385.31695488854604 592.7050983124842 A 300 300 0 0 1 -342.7050983124842 323.6644243122581 L -261.8033988749895 382.4429495415054 A 200 200 0 0 0 -290.21130325903073 561.8033988749895 Z" fill="#ad7f5d" stroke="#000000" stroke-width="1.5" /><path d="M -261.8033988749895 382.4429495415054 L -342.7050983124842 323.6644243122581 A 300 300 0 0 1 -100.00000000000006 200.0 L -100.00000000000004 300.0 A 200 200 0 0 0 -261.8033988749895 382.4429495415054 Z" fill="#ebd7b5" stroke="#000000" stroke-width="1.5" /><path d="M 200.0 500.0 L 300.0 500.0 A 400 400 0 0 1 135.11410091698926 823.606797749979 L 76.33557568774194 742.7050983124842 A 300 300 0 0 0 200.0 500.0 Z" fill="#ad7f5d" stroke="#000000" stroke-width="1.5" /><path d="M 76.33557568774194 742.7050983124842 L 135.11410091698926 823.606797749979 A 400 400 0 0 1 -223.60679774997894 880.4226065180615 L -192.7050983124842 785.3169548885461 A 300 300 0 0 0 76.33557568774194 742.7050983124842 Z" fill="#ebd7b5" stroke="#000000" stroke-width="1.5" /><path d="M -192.7050983124842 785.3169548885461 L -223.60679774997894 880.4226065180615 A 400 400 0 0 1 -480.4226065180614 623.606797749979 L -385.31695488854604 592.7050983124842 A 300 300 0 0 0 -192.7050983124842 785.3169548885461 Z" fill="#ad7f5d" stroke="#000000" stroke-width="1.5" /><path d="M -385.31695488854604 592.7050983124842 L -480.4226065180614 623.606797749979 A 400 400 0 0 1 -423.60679774997897 264.8858990830108 L -342.7050983124842 323.6644243122581 A 300 300 0 0 0 -385.31695488854604 592.7050983124842 Z" fill="#ebd7b5" stroke="#000000" stroke-width="1.5" /><path d="M -342.7050983124842 323.6644243122581 L -423.60679774997897 264.8858990830108 A 400 400 0 0 1 -100.00000000000007 100.0 L -100.00000000000006 200.0 A 300 300 0 0 0 -342.7050983124842 323.6644243122581 Z" fill="#ad7f5d" stroke="#000000" stroke-width="1.5" /><path d="M 300.0 500.0 L 400.0 500.0 A 500 500 0 0 1 193.89262614623658 904.5084971874737 L 135.11410091698926 823.606797749979 A 400 400 0 0 0 300.0 500.0 Z" fill="#ebd7b5" stroke="#000000" stroke-width="1.5" /><path d="M 135.11410091698926 823.606797749979 L 193.89262614623658 904.5084971874737 A 500 500 0 0 1 -254.50849718747367 975.5282581475768 L -223.60679774997894 880.4226065180615 A 400 400 0 0 0 135.11410091698926 823.606797749979 Z" fill="#ad7f5d" stroke="#000000" stroke-width="1.5" /><path d="M -223.60679774997894 880.4226065180615 L -254.50849718747367 975.5282581475768 A 500 500 0 0 1 -575.5282581475767 654.5084971874737 L -480.4226065180614 623.606797749979 A 400 400 0 0 0 -223.60679774997894 880.4226065180615 Z" fill="#ebd7b5" stroke="#000000" stroke-width="1.5" /><path d="M -480.4226065180614 623.606797749979 L -575.5282581475767 654.5084971874737 A 500 500 0 0 1 -504.5084971874737 206.10737385376348 L -423.60679774997897 264.8858990830108 A 400 400 0 0 0 -480.4226065180614 623.606797749979 Z" fill="#ad7f5d" stroke="#000000" stroke-width="1.5" /><path d="M -423.60679774997897 264.8858990830108 L -504.5084971874737 206.10737385376348 A 500 500 0 0 1 -100.00000000000009 0.0 L -100.00000000000007 100.0 A 400 400 0 0 0 -423.60679774997897 264.8858990830108 Z" fill="#ebd7b5" stroke="#000000" stroke-width="1.5" /><g transform="translate(791.1980515339462, -445.19805153394645) scale(1.2)"><path d="M 22.5,11.63 V 6 M 20,8 h 5 M 22.5,25 C 22.5,25 27,17.5 27,13 C 27,10.51 24.99,8.5 22.5,8.5 C 20.01,8.5 18,10.51 18,13 C 18,17.5 22.5,25 22.5,25 Z M 11.5,37 c 5.5,3.5 15.5,3.5 21,0 v -7 s 9,-4.5 9,-14 c 0,-4 -2,-8 -6,-10 c -4,-2 -8,0 -10,1 c -2,-1 -6,-3 -10,-1 c -4,2 -6,6 -6,10 c 0,9.5 9,14 9,14 v 7 z M 9,26 c 8.5,-1.5 18.5,-1.5 27,0 M 11.5,30 c 5.5,-3 15.5,-3 21,0 m -21,3.5 c 5.5,-3 15.5,-3 21,0" fill="black" stroke="white" stroke-width="1.5" /></g><g transform="translate(720.4873734152916, -374.4873734152917) scale(1.2)"><path d="M 9 26 c 8.5 -1.5 18.5 -1.5 27 0 M 9 26 c 0 2 2 4.5 2 4.5 c 5 3 15 3 20 0 c 0 0 2 -2.5 2 -4.5 M 11.5 30 c 5.5 -3 15.5 -3 21 0 m -21 3.5 c 5.5 -3 15.5 -3 21 0 M 9 26 L 6 10 L 12 18 L 18 6 L 22.5 18 L 27 6 L 33 18 L 39 10 L 36 26 M 12 18 a 2 2 0 1 1 -4 0 a 2 2 0 1 1 4 0 z M 18 6 a 2 2 0 1 1 -4 0 a 2 2 0 1 1 4 0 z M 24.5 6 a 2 2 0 1 1 -4 0 a 2 2 0 1 1 4 0 z M 31 6 a 2 2 0 1 1 -4 0 a 2 2 0 1 1 4 0 z M 38 18 a 2 2 0 1 1 -4 0 a 2 2 0 1 1 4 0 z" fill="black" stroke="white" stroke-width="1.5" /></g><g transform="translate(649.7766952966368, -303.77669529663694) scale(1.2)"><path d="M 9,36 c 3,3.5 24,3.5 27,0 M 15,32 c 2.5,2.5 12.5,2.5 15,0 M 9,26 c 3.995,1.583 12.662,2.25 18,2.25 c 5.338,0 14.005,-0.667 18,-2.25 M 17,21 c -2,2 -2,4 0,6 c 2,2 5,2 7,0 c 2,-2 2,-4 0,-6 c -2,-2 -5,-2 -7,0 z M 12,12 c 4,12 21,12 25,0 c 1,-1 1,-4 -2,-6 c -3,-2 -6,-2 -8,0 c -2,2 -3,2 -4,0 c -1,-1 -4,-3 -7,-2 c -3,1 -5,4 -4,8 z M 26,13 a 2,2 0 1 1 -4,0 a 2,2 0 1 1 4,0 z" fill="black" stroke="white" stroke-width="1.5" /></g><g transform="translate(579.0660171779821, -233.06601717798213) scale(1.2)"><path d="M 9,36 c 3,3.5 24,3.5 27,0 M 15,32 c 2.5,2.5 12.5,2.5 15,0 M 9,26 c 3.995,1.583 12.662,2.25 18,2.25 c 5.338,0 14.005,-0.667 18,-2.25 M 17,21 c -2,2 -2,4 0,6 c 2,2 5,2 7,0 c 2,-2 2,-4 0,-6 c -2,-2 -5,-2 -7,0 z M 12,12 c 4,12 21,12 25,0 c 1,-1 1,-4 -2,-6 c -3,-2 -6,-2 -8,0 c -2,2 -3,2 -4,0 c -1,-1 -4,-3 -7,-2 c -3,1 -5,4 -4,8 z M 26,13 a 2,2 0 1 1 -4,0 a 2,2 0 1 1 4,0 z" fill="black" stroke="white" stroke-width="1.5" /></g><g transform="translate(268.7042751172039, -527.9529358847656) scale(1.2)"><path d="M 9,39 h 27 v -3 H 9 v 3 z M 12,36 v -4 h 21 v 4 H 12 z M 11,14 V 9 h 4 v 2 h 5 V 9 h 5 v 2 h 5 V 9 h 4 v 5" fill="black" stroke="white" stroke-width="1.5" /></g><g transform="translate(314.1033250911586, -438.85228346592874) scale(1.2)"><path d="M 22,10 c 10.5,1 16.5,8 16,29 H 15 c 0,-9 10,-6.5 8,-21" fill="black" stroke="white" stroke-width="1.5" /></g><g transform="translate(873.9529358847656, 77.29572488279595) scale(1.2)"><path d="M 9,39 h 27 v -3 H 9 v 3 z M 12,36 v -4 h 21 v 4 H 12 z M 11,14 V 9 h 4 v 2 h 5 V 9 h 5 v 2 h 5 V 9 h 4 v 5" fill="black" stroke="white" stroke-width="1.5" /></g><g transform="translate(784.8522834659288, 31.896674908841305) scale(1.2)"><path d="M 22,10 c 10.5,1 16.5,8 16,29 H 15 c 0,-9 10,-6.5 8,-21" fill="black" stroke="white" stroke-width="1.5" /></g><g transform="translate(250.24836895290798, -240.49762493488657) scale(1.2)"><path d="M 22.5,9 a 5,5 0 1 1 -10,0 a 5,5 0 1 1 10,0 z M 22.5,14 c -6,0 -10,6 -10,12 c 0,1.5 0,3 0,4.5 h 20 c 0,-1.5 0,-3 0,-4.5 c 0,-6 -4,-12 -10,-12 z M 12.5,31 c 0,1.5 1,3 2.5,3 h 15 c 1.5,0 2.5,-1.5 2.5,-3 h -20 z m 0,3.5 c 0,1.5 1,3 2.5,3 h 15 c 1.5,0 2.5,-1.5 2.5,-3 h -20 z m -2.5,4 c 0,1.5 1.5,3 3,3 h 19 c 1.5,0 3,-1.5 3,-3 h -25 z" fill="black" stroke="white" stroke-width="1.5" /></g><g transform="translate(512.1086162600577, -373.92208514878445) scale(1.2)"><path d="M 22.5,9 a 5,5 0 1 1 -10,0 a 5,5 0 1 1 10,0 z M 22.5,14 c -6,0 -10,6 -10,12 c 0,1.5 0,3 0,4.5 h 20 c 0,-1.5 0,-3 0,-4.5 c 0,-6 -4,-12 -10,-12 z M 12.5,31 c 0,1.5 1,3 2.5,3 h 15 c 1.5,0 2.5,-1.5 2.5,-3 h -20 z m 0,3.5 c 0,1.5 1,3 2.5,3 h 15 c 1.5,0 2.5,-1.5 2.5,-3 h -20 z m -2.5,4 c 0,1.5 1.5,3 3,3 h 19 c 1.5,0 3,-1.5 3,-3 h -25 z" fill="black" stroke="white" stroke-width="1.5" /></g><g transform="translate(719.9220851487844, -166.10861626005777) scale(1.2)"><path d="M 22.5,9 a 5,5 0 1 1 -10,0 a 5,5 0 1 1 10,0 z M 22.5,14 c -6,0 -10,6 -10,12 c 0,1.5 0,3 0,4.5 h 20 c 0,-1.5 0,-3 0,-4.5 c 0,-6 -4,-12 -10,-12 z M 12.5,31 c 0,1.5 1,3 2.5,3 h 15 c 1.5,0 2.5,-1.5 2.5,-3 h -20 z m 0,3.5 c 0,1.5 1,3 2.5,3 h 15 c 1.5,0 2.5,-1.5 2.5,-3 h -20 z m -2.5,4 c 0,1.5 1.5,3 3,3 h 19 c 1.5,0 3,-1.5 3,-3 h -25 z" fill="black" stroke="white" stroke-width="1.5" /></g><g transform="translate(586.4976249348867, 95.75163104709193) scale(1.2)"><path d="M 22.5,9 a 5,5 0 1 1 -10,0 a 5,5 0 1 1 10,0 z M 22.5,14 c -6,0 -10,6 -10,12 c 0,1.5 0,3 0,4.5 h 20 c 0,-1.5 0,-3 0,-4.5 c 0,-6 -4,-12 -10,-12 z M 12.5,31 c 0,1.5 1,3 2.5,3 h 15 c 1.5,0 2.5,-1.5 2.5,-3 h -20 z m 0,3.5 c 0,1.5 1,3 2.5,3 h 15 c 1.5,0 2.5,-1.5 2.5,-3 h -20 z m -2.5,4 c 0,1.5 1.5,3 3,3 h 19 c 1.5,0 3,-1.5 3,-3 h -25 z" fill="black" stroke="white" stroke-width="1.5" /></g><g transform="translate(-445.19805153394634, 791.1980515339465) scale(1.2)"><path d="M 22.5,11.63 V 6 M 20,8 h 5 M 22.5,25 C 22.5,25 27,17.5 27,13 C 27,10.51 24.99,8.5 22.5,8.5 C 20.01,8.5 18,10.51 18,13 C 18,17.5 22.5,25 22.5,25 Z M 11.5,37 c 5.5,3.5 15.5,3.5 21,0 v -7 s 9,-4.5 9,-14 c 0,-4 -2,-8 -6,-10 c -4,-2 -8,0 -10,1 c -2,-1 -6,-3 -10,-1 c -4,2 -6,6 -6,10 c 0,9.5 9,14 9,14 v 7 z M 9,26 c 8.5,-1.5 18.5,-1.5 27,0 M 11.5,30 c 5.5,-3 15.5,-3 21,0 m -21,3.5 c 5.5,-3 15.5,-3 21,0" fill="white" stroke="black" stroke-width="1.5" /></g><g transform="translate(-374.4873734152916, 720.4873734152916) scale(1.2)"><path d="M 9 26 c 8.5 -1.5 18.5 -1.5 27 0 M 9 26 c 0 2 2 4.5 2 4.5 c 5 3 15 3 20 0 c 0 0 2 -2.5 2 -4.5 M 11.5 30 c 5.5 -3 15.5 -3 21 0 m -21 3.5 c 5.5 -3 15.5 -3 21 0 M 9 26 L 6 10 L 12 18 L 18 6 L 22.5 18 L 27 6 L 33 18 L 39 10 L 36 26 M 12 18 a 2 2 0 1 1 -4 0 a 2 2 0 1 1 4 0 z M 18 6 a 2 2 0 1 1 -4 0 a 2 2 0 1 1 4 0 z M 24.5 6 a 2 2 0 1 1 -4 0 a 2 2 0 1 1 4 0 z M 31 6 a 2 2 0 1 1 -4 0 a 2 2 0 1 1 4 0 z M 38 18 a 2 2 0 1 1 -4 0 a 2 2 0 1 1 4 0 z" fill="white" stroke="black" stroke-width="1.5" /></g><g transform="translate(-303.77669529663683, 649.776695296637) scale(1.2)"><path d="M 9,36 c 3,3.5 24,3.5 27,0 M 15,32 c 2.5,2.5 12.5,2.5 15,0 M 9,26 c 3.995,1.583 12.662,2.25 18,2.25 c 5.338,0 14.005,-0.667 18,-2.25 M 17,21 c -2,2 -2,4 0,6 c 2,2 5,2 7,0 c 2,-2 2,-4 0,-6 c -2,-2 -5,-2 -7,0 z M 12,12 c 4,12 21,12 25,0 c 1,-1 1,-4 -2,-6 c -3,-2 -6,-2 -8,0 c -2,2 -3,2 -4,0 c -1,-1 -4,-3 -7,-2 c -3,1 -5,4 -4,8 z M 26,13 a 2,2 0 1 1 -4,0 a 2,2 0 1 1 4,0 z" fill="white" stroke="black" stroke-width="1.5" /></g><g transform="translate(-233.06601717798213, 579.0660171779821) scale(1.2)"><path d="M 9,36 c 3,3.5 24,3.5 27,0 M 15,32 c 2.5,2.5 12.5,2.5 15,0 M 9,26 c 3.995,1.583 12.662,2.25 18,2.25 c 5.338,0 14.005,-0.667 18,-2.25 M 17,21 c -2,2 -2,4 0,6 c 2,2 5,2 7,0 c 2,-2 2,-4 0,-6 c -2,-2 -5,-2 -7,0 z M 12,12 c 4,12 21,12 25,0 c 1,-1 1,-4 -2,-6 c -3,-2 -6,-2 -8,0 c -2,2 -3,2 -4,0 c -1,-1 -4,-3 -7,-2 c -3,1 -5,4 -4,8 z M 26,13 a 2,2 0 1 1 -4,0 a 2,2 0 1 1 4,0 z" fill="white" stroke="black" stroke-width="1.5" /></g><g transform="translate(77.2957248827961, 873.9529358847656) scale(1.2)"><path d="M 9,39 h 27 v -3 H 9 v 3 z M 12,36 v -4 h 21 v 4 H 12 z M 11,14 V 9 h 4 v 2 h 5 V 9 h 5 v 2 h 5 V 9 h 4 v 5" fill="white" stroke="black" stroke-width="1.5" /></g><g transform="translate(31.89667490884139, 784.8522834659287) scale(1.2)"><path d="M 22,10 c 10.5,1 16.5,8 16,29 H 15 c 0,-9 10,-6.5 8,-21" fill="white" stroke="black" stroke-width="1.5" /></g><g transform="translate(-527.9529358847657, 268.7042751172042) scale(1.2)"><path d="M 9,39 h 27 v -3 H 9 v 3 z M 12,36 v -4 h 21 v 4 H 12 z M 11,14 V 9 h 4 v 2 h 5 V 9 h 5 v 2 h 5 V 9 h 4 v 5" fill="white" stroke="black" stroke-width="1.5" /></g><g transform="translate(-438.85228346592885, 314.1033250911588) scale(1.2)"><path d="M 22,10 c 10.5,1 16.5,8 16,29 H 15 c 0,-9 10,-6.5 8,-21" fill="white" stroke="black" stroke-width="1.5" /></g><g transform="translate(95.75163104709196, 586.4976249348867) scale(1.2)"><path d="M 22.5,9 a 5,5 0 1 1 -10,0 a 5,5 0 1 1 10,0 z M 22.5,14 c -6,0 -10,6 -10,12 c 0,1.5 0,3 0,4.5 h 20 c 0,-1.5 0,-3 0,-4.5 c 0,-6 -4,-12 -10,-12 z M 12.5,31 c 0,1.5 1,3 2.5,3 h 15 c 1.5,0 2.5,-1.5 2.5,-3 h -20 z m 0,3.5 c 0,1.5 1,3 2.5,3 h 15 c 1.5,0 2.5,-1.5 2.5,-3 h -20 z m -2.5,4 c 0,1.5 1.5,3 3,3 h 19 c 1.5,0 3,-1.5 3,-3 h -25 z" fill="white" stroke="black" stroke-width="1.5" /></g><g transform="translate(-166.10861626005777, 719.9220851487844) scale(1.2)"><path d="M 22.5,9 a 5,5 0 1 1 -10,0 a 5,5 0 1 1 10,0 z M 22.5,14 c -6,0 -10,6 -10,12 c 0,1.5 0,3 0,4.5 h 20 c 0,-1.5 0,-3 0,-4.5 c 0,-6 -4,-12 -10,-12 z M 12.5,31 c 0,1.5 1,3 2.5,3 h 15 c 1.5,0 2.5,-1.5 2.5,-3 h -20 z m 0,3.5 c 0,1.5 1,3 2.5,3 h 15 c 1.5,0 2.5,-1.5 2.5,-3 h -20 z m -2.5,4 c 0,1.5 1.5,3 3,3 h 19 c 1.5,0 3,-1.5 3,-3 h -25 z" fill="white" stroke="black" stroke-width="1.5" /></g><g transform="translate(-373.9220851487844, 512.1086162600577) scale(1.2)"><path d="M 22.5,9 a 5,5 0 1 1 -10,0 a 5,5 0 1 1 10,0 z M 22.5,14 c -6,0 -10,6 -10,12 c 0,1.5 0,3 0,4.5 h 20 c 0,-1.5 0,-3 0,-4.5 c 0,-6 -4,-12 -10,-12 z M 12.5,31 c 0,1.5 1,3 2.5,3 h 15 c 1.5,0 2.5,-1.5 2.5,-3 h -20 z m 0,3.5 c 0,1.5 1,3 2.5,3 h 15 c 1.5,0 2.5,-1.5 2.5,-3 h -20 z m -2.5,4 c 0,1.5 1.5,3 3,3 h 19 c 1.5,0 3,-1.5 3,-3 h -25 z" fill="white" stroke="black" stroke-width="1.5" /></g><g transform="translate(-240.49762493488674, 250.2483689529081) scale(1.2)"><path d="M 22.5,9 a 5,5 0 1 1 -10,0 a 5,5 0 1 1 10,0 z M 22.5,14 c -6,0 -10,6 -10,12 c 0,1.5 0,3 0,4.5 h 20 c 0,-1.5 0,-3 0,-4.5 c 0,-6 -4,-12 -10,-12 z M 12.5,31 c 0,1.5 1,3 2.5,3 h 15 c 1.5,0 2.5,-1.5 2.5,-3 h -20 z m 0,3.5 c 0,1.5 1,3 2.5,3 h 15 c 1.5,0 2.5,-1.5 2.5,-3 h -20 z m -2.5,4 c 0,1.5 1.5,3 3,3 h 19 c 1.5,0 3,-1.5 3,-3 h -25 z" fill="white" stroke="black" stroke-width="1.5" /></g></g></svg>